<svg xmlns="http://www.w3.org/2000/svg" xmlns:xlink="http://www.w3.org/1999/xlink" viewBox="0 0 347.26 277.9"><defs><style>.cls-1,.cls-4{fill:none;}.cls-2{clip-path:url(#clip-path);}.cls-3{fill:#fff;}.cls-4{stroke:#231f20;stroke-miterlimit:10;stroke-width:2px;}.cls-5{fill:#ebddc7;}.cls-6{fill:#e98d69;}.cls-7{fill:#ddc39a;}.cls-8{fill:#075fab;}.cls-9{font-size:49px;fill:#231f20;font-family:Seravek;letter-spacing:0.1em;}.cls-10{letter-spacing:0.14em;}.cls-11{letter-spacing:0.14em;}.cls-12{letter-spacing:0.14em;}.cls-13{letter-spacing:0.14em;}.cls-14{letter-spacing:0em;}</style><clipPath id="clip-path" transform="translate(0 0)"><rect class="cls-1" width="333.98" height="291.27"/></clipPath></defs><g id="Layer_2" data-name="Layer 2"><g id="Layer_1-2" data-name="Layer 1"><g id="Artwork_9" data-name="Artwork 9"><g class="cls-2"><g class="cls-2"><path class="cls-3" d="M228.77,146.76a34.17,34.17,0,1,1-34.17-34.17,34.17,34.17,0,0,1,34.17,34.17" transform="translate(0 0)"/><path class="cls-4" d="M228.77,146.76a34.17,34.17,0,1,1-34.17-34.17A34.17,34.17,0,0,1,228.77,146.76Z" transform="translate(0 0)"/><path class="cls-5" d="M203.84,95.86,137.5,92a25.44,25.44,0,0,1-23.91-26.89l.47-7.88A25.43,25.43,0,0,1,141,33.28l66.35,3.9a25.44,25.44,0,0,1,23.9,26.9L230.74,72a25.45,25.45,0,0,1-26.9,23.9" transform="translate(0 0)"/><path class="cls-4" d="M203.84,95.86,137.5,92a25.44,25.44,0,0,1-23.91-26.89l.47-7.88A25.43,25.43,0,0,1,141,33.28l66.35,3.9a25.44,25.44,0,0,1,23.9,26.9L230.74,72A25.45,25.45,0,0,1,203.84,95.86Z" transform="translate(0 0)"/><path class="cls-6" d="M326.88,21.9A15,15,0,0,0,310.62,1.22L259,9.85l-38.71-.6C191,14.47,181.88,29.7,169.53,36.49l-8.74,4.81c-5.22,1.92-21.18,8.3-26.54,9.77C74.9,67.31,23.19,72.31,2.64,74.24l.47.66L64,71.21a20.36,20.36,0,0,1,6.26.62c13.38,3.08,193.46-49.66,193.46-23,0,4-4.09,9.85-13.45,17.94-9.4,6.84-58.28,46.51-62.11,66.94-5.34,28.43,28.31,49.77,37.81,53.72,5.11,2.12,27.84,6.92,46.7,9.62h.29c17.62,0,33.29-12,37.11-29.2a1.77,1.77,0,0,0,0-.37c0-6.14-14.76-63.39-16.82-72.82C288.33,82,301.2,61.37,301.2,61.37Z" transform="translate(0 0)"/><path class="cls-4" d="M326.88,21.9A15,15,0,0,0,310.62,1.22L259,9.85l-38.71-.6C191,14.47,181.88,29.7,169.53,36.49l-8.74,4.81c-5.22,1.92-21.18,8.3-26.54,9.77C74.9,67.31,23.19,72.31,2.64,74.24l.47.66L64,71.21a20.36,20.36,0,0,1,6.26.62c13.38,3.08,193.46-49.66,193.46-23,0,4-4.09,9.85-13.45,17.94-9.4,6.84-58.28,46.51-62.11,66.94-5.34,28.43,28.31,49.77,37.81,53.72,5.11,2.12,27.84,6.92,46.7,9.62h.29c17.62,0,33.29-12,37.11-29.2a1.77,1.77,0,0,0,0-.37c0-6.14-14.76-63.39-16.82-72.82C288.33,82,301.2,61.37,301.2,61.37Z" transform="translate(0 0)"/><path class="cls-5" d="M254.07,71.4a105.27,105.27,0,0,1-21-2.11c-13.71-2.79-19-7.32-30.08-10-6-1.48-19.95-4.78-36.32-3.16-18.29,1.8-19.54,7.13-47.92,15-26,7.18-28.35,3.43-38.33,9.85-16.33,10.5-26.77,31.31-21.56,46.46A25.7,25.7,0,0,0,66.81,139a29.55,29.55,0,0,0,18.73,6.34,30.38,30.38,0,0,0,14.75-4.75c21.22-12.31,64.23,20.39,116.33,15.31a106.69,106.69,0,0,0,44.26-14.79c8.23-5,17.61-11,22.7-22.17,4.73-10.42,6.82-28.63-5.68-39.61-8.69-7.64-20.11-8-23.83-7.92" transform="translate(0 0)"/><path class="cls-4" d="M254.07,71.4a105.27,105.27,0,0,1-21-2.11c-13.71-2.79-19-7.32-30.08-10-6-1.48-19.95-4.78-36.32-3.16-18.29,1.8-19.54,7.13-47.92,15-26,7.18-28.35,3.43-38.33,9.85-16.33,10.5-26.77,31.31-21.56,46.46A25.7,25.7,0,0,0,66.81,139a29.55,29.55,0,0,0,18.73,6.34,30.38,30.38,0,0,0,14.75-4.75c21.22-12.31,64.23,20.39,116.33,15.31a106.69,106.69,0,0,0,44.26-14.79c8.23-5,17.61-11,22.7-22.17,4.73-10.42,6.82-28.63-5.68-39.61C269.21,71.68,257.79,71.36,254.07,71.4Z" transform="translate(0 0)"/><path class="cls-7" d="M172.4,204.4h0a50.81,50.81,0,0,1-50.81-50.81v-27a50.81,50.81,0,0,1,101.61,0v27a50.8,50.8,0,0,1-50.8,50.81" transform="translate(0 0)"/><path class="cls-4" d="M172.4,204.4h0a50.81,50.81,0,0,1-50.81-50.81v-27a50.81,50.81,0,0,1,101.61,0v27A50.8,50.8,0,0,1,172.4,204.4Z" transform="translate(0 0)"/><path class="cls-3" d="M206.9,129.16H182.3a8.42,8.42,0,0,1-8.42-8.42v-6.27A8.42,8.42,0,0,1,182.3,106h24.6a8.42,8.42,0,0,1,8.43,8.43v6.27a8.42,8.42,0,0,1-8.43,8.42" transform="translate(0 0)"/><rect class="cls-4" x="173.88" y="106.04" width="41.45" height="23.12" rx="8.42"/><path class="cls-3" d="M225.7,174.3H152a9.68,9.68,0,0,1-9.68-9.68V127.29A9.69,9.69,0,0,1,152,117.6h73.7a9.69,9.69,0,0,1,9.69,9.69v37.33a9.68,9.68,0,0,1-9.69,9.68" transform="translate(0 0)"/><rect class="cls-4" x="142.32" y="117.6" width="93.07" height="56.7" rx="9.68"/><path class="cls-3" d="M194.6,181.26h0a34.5,34.5,0,1,1,34.51-34.5,34.5,34.5,0,0,1-34.51,34.5" transform="translate(0 0)"/><path class="cls-4" d="M194.6,181.26h0a34.5,34.5,0,1,1,34.51-34.5A34.5,34.5,0,0,1,194.6,181.26Z" transform="translate(0 0)"/><path class="cls-8" d="M194.6,120.46c-15.36,0-27.81,11.77-27.81,26.29s12.45,26.31,27.81,26.31,27.82-11.78,27.82-26.31S210,120.46,194.6,120.46m0,46.94c-12.06,0-21.83-9.24-21.83-20.65s9.77-20.64,21.83-20.64,21.84,9.25,21.84,20.64-9.77,20.65-21.84,20.65" transform="translate(0 0)"/><path class="cls-4" d="M194.6,120.46c-15.36,0-27.81,11.77-27.81,26.29s12.45,26.31,27.81,26.31,27.82-11.78,27.82-26.31S210,120.46,194.6,120.46Zm0,46.94c-12.06,0-21.83-9.24-21.83-20.65s9.77-20.64,21.83-20.64,21.84,9.25,21.84,20.64S206.67,167.4,194.6,167.4Z" transform="translate(0 0)"/><text class="cls-9" transform="translate(0 256.54)">W<tspan class="cls-10" x="51.16" y="0">AN</tspan><tspan class="cls-11" x="132.74" y="0">D</tspan><tspan class="cls-12" x="173.02" y="0">ER</tspan><tspan class="cls-13" x="240.34" y="0">L</tspan><tspan class="cls-12" x="270.28" y="0">IS</tspan><tspan class="cls-14" x="321.39" y="0">T</tspan></text></g></g></g></g></g></svg>