<svg xmlns="http://www.w3.org/2000/svg" xmlns:xlink="http://www.w3.org/1999/xlink" viewBox="0 0 159.08 177.63"><defs><style>.cls-1{fill:none;}.cls-2{clip-path:url(#clip-path);}.cls-3{font-size:62px;}.cls-3,.cls-6{fill:#231f20;font-family:CambayDevanagari-Regular, Cambay Devanagari;}.cls-4{letter-spacing:0.02em;}.cls-5{letter-spacing:0.02em;}.cls-6{font-size:64px;}.cls-7{letter-spacing:0.04em;}.cls-8{fill:#e88c68;}.cls-9{fill:#065fab;}</style><clipPath id="clip-path" transform="translate(0 0)"><rect class="cls-1" width="159.08" height="177.63"/></clipPath></defs><g id="Layer_2" data-name="Layer 2"><g id="Layer_1-2" data-name="Layer 1"><g id="about_banner_same_es" data-name="about banner same es"><g class="cls-2"><text class="cls-3" transform="translate(56.97 102.76)"><tspan class="cls-4">O</tspan><tspan class="cls-5" x="39.12" y="0">u</tspan><tspan x="67.27" y="0">r</tspan></text><g class="cls-2"><text class="cls-6" transform="translate(18.24 145.69)"><tspan class="cls-7">Tea</tspan><tspan x="87.17" y="0">m</tspan></text><path class="cls-8" d="M81.32,42.06C76.51,45.52,68,45,67.31,37.65A45,45,0,0,1,68.8,24c.94-3.69,3.69-5.58,7.48-3.79,1.77.82,5.35,3.32,5,5.71-.51,3.58-12.56,1.82-15,1.74-3.09-.1-3.08,4.7,0,4.8,6.33.21,22.24,3.18,19.64-7.82-1.5-6.34-12-14-18.07-8.9-3.13,2.64-3.86,7.31-4.37,11.11-.58,4.38-2,10.23-.38,14.53,3.11,8.35,14.18,9.45,20.65,4.8,2.48-1.79.09-6-2.43-4.15" transform="translate(0 0)"/><path class="cls-8" d="M108.92,40.91c-4.82,3.46-13.35,2.9-14-4.41a45.09,45.09,0,0,1,1.49-13.63c.94-3.69,3.69-5.57,7.49-3.79,1.76.83,5.34,3.33,5,5.72-.51,3.58-12.56,1.82-15,1.74-3.09-.1-3.09,4.7,0,4.8,6.32.21,22.23,3.18,19.63-7.82-1.5-6.34-12-14-18.07-8.9-3.13,2.63-3.86,7.31-4.37,11.11-.58,4.38-2,10.23-.38,14.53,3.11,8.35,14.18,9.44,20.65,4.79,2.48-1.78.09-5.95-2.42-4.14" transform="translate(0 0)"/><path class="cls-8" d="M120,2.31l-1,25.16c-.26,6.16-1.4,13.29,2,18.83,6.19,10.11,19.65,7.43,26.75.15,2.16-2.21-1.23-5.61-3.39-3.39-3.53,3.61-8.47,6.28-13.64,4.8C124.2,46,123.25,40,123.43,34.1c.31-10.59.88-21.19,1.32-31.79.13-3.08-4.68-3.08-4.8,0" transform="translate(0 0)"/><path class="cls-8" d="M123.37,20.05l9.89.15c3.09.05,3.1-4.75,0-4.8l-9.89-.15c-3.09-.05-3.09,4.75,0,4.8" transform="translate(0 0)"/><path class="cls-8" d="M0,26.38c.24,9.05-.32,18.13,1.58,27.05.64,3,5.27,1.74,4.63-1.28C4.4,43.67,5,35,4.8,26.38c-.08-3.09-4.88-3.1-4.8,0" transform="translate(0 0)"/><path class="cls-8" d="M5.43,29.41C6.84,25.66,7.68,21.6,9.5,18s6.62-9,10.82-5.48c2.8,2.37,2.69,9.46,3.1,13,.52,4.43.85,8.87,1.07,13.32.15,3.08,5,3.1,4.8,0A204.89,204.89,0,0,0,27.1,17.3C26.26,12,25.14,7.42,19,6.75,6.89,5.42,4,19.74.8,28.14-.29,31,4.35,32.28,5.43,29.41" transform="translate(0 0)"/><path class="cls-8" d="M28,23.85c1.08-5.6,5-16.41,12.86-11,5.52,3.79,5.5,15.31,5.66,21.21.25,9.57,1.27,20.71,11.85,24.19,2.94,1,4.2-3.67,1.28-4.63-9.89-3.25-7.89-16-8.54-24.11-.49-6.14-1.17-14.36-5.67-19A12,12,0,0,0,32.1,8c-5.83,2.55-7.59,8.88-8.69,14.61-.59,3,4,4.31,4.62,1.28" transform="translate(0 0)"/><path class="cls-9" d="M155.1,17.19c-2.75,1.3-4.31-3.23-1.51-4.2a2.49,2.49,0,0,1,2.9,1.34,2.79,2.79,0,0,1-1.35,3.45c-1.36.75-.15,2.82,1.21,2.07a5.17,5.17,0,0,0,2.21-6.74,4.71,4.71,0,0,0-8.53,4,4.68,4.68,0,0,0,6.28,2.15c1.4-.66.18-2.73-1.21-2.07" transform="translate(0 0)"/><path class="cls-9" d="M155.1,35.21c-2.75,1.31-4.31-3.22-1.51-4.19a2.49,2.49,0,0,1,2.9,1.33,2.79,2.79,0,0,1-1.35,3.46c-1.36.75-.15,2.82,1.21,2.07a5.17,5.17,0,0,0,2.21-6.74,4.71,4.71,0,0,0-8.53,4,4.68,4.68,0,0,0,6.28,2.15c1.4-.66.18-2.73-1.21-2.08" transform="translate(0 0)"/></g></g></g></g></g></svg>