<svg xmlns="http://www.w3.org/2000/svg" xmlns:xlink="http://www.w3.org/1999/xlink" viewBox="0 0 216.82 224.77"><defs><style>.cls-1{fill:none;}.cls-2{clip-path:url(#clip-path);}.cls-3{font-size:62px;letter-spacing:0.04em;}.cls-3,.cls-5{fill:#231f20;font-family:AvenirNext-Regular, Avenir Next;}.cls-4{letter-spacing:0em;}.cls-5{font-size:64px;}.cls-6{letter-spacing:-0.05em;}.cls-7{letter-spacing:0.04em;}.cls-8{letter-spacing:0.04em;}.cls-9{fill:#e88c68;}.cls-10{fill:#065fab;}</style><clipPath id="clip-path" transform="translate(0 0)"><rect class="cls-1" width="216.82" height="224.77"/></clipPath></defs><g id="Layer_2" data-name="Layer 2"><g id="Layer_1-2" data-name="Layer 1"><g id="about_banner_arrows" data-name="about banner arrows"><g class="cls-2"><text class="cls-3" transform="translate(45.87 134.66)">Ou<tspan class="cls-4" x="93.93" y="0">r</tspan></text><g class="cls-2"><text class="cls-5" transform="translate(34.47 198.47)"><tspan class="cls-6">T</tspan><tspan class="cls-7" x="33.09" y="0">e</tspan><tspan class="cls-8" x="72" y="0">a</tspan><tspan x="108.86" y="0">m</tspan></text><path class="cls-9" d="M121,43.11c-4.82,3.46-13.35,2.9-14-4.41a45.05,45.05,0,0,1,1.49-13.63c.94-3.69,3.7-5.57,7.48-3.79,1.77.83,5.35,3.32,5,5.71-.51,3.59-12.56,1.83-15,1.75-3.08-.1-3.08,4.7,0,4.8,6.33.2,22.25,3.17,19.64-7.82-1.5-6.34-12-14-18.07-8.91-3.13,2.64-3.86,7.32-4.37,11.11-.58,4.38-2,10.24-.38,14.54,3.11,8.35,14.18,9.44,20.65,4.79,2.48-1.79.09-6-2.42-4.14" transform="translate(0 0)"/><path class="cls-9" d="M148.54,42c-4.82,3.47-13.35,2.91-14-4.4A44.74,44.74,0,0,1,136,23.92c.93-3.69,3.69-5.57,7.48-3.79,1.76.83,5.34,3.32,5,5.71-.51,3.59-12.56,1.82-15,1.75-3.09-.1-3.09,4.7,0,4.8,6.33.2,22.24,3.17,19.63-7.82-1.5-6.34-12-14-18.07-8.91-3.13,2.64-3.86,7.31-4.37,11.11-.58,4.38-2,10.23-.38,14.54,3.12,8.35,14.18,9.44,20.65,4.79,2.49-1.79.09-6-2.42-4.15" transform="translate(0 0)"/><path class="cls-9" d="M159.57,3.36l-1,25.16c-.26,6.16-1.4,13.28,2,18.83,6.19,10.11,19.65,7.43,26.75.14,2.16-2.21-1.23-5.61-3.39-3.39-3.52,3.61-8.47,6.28-13.64,4.8-6.42-1.83-7.37-7.91-7.19-13.75.31-10.6.88-21.2,1.32-31.79.13-3.09-4.67-3.08-4.8,0" transform="translate(0 0)"/><path class="cls-9" d="M163,21.09l9.89.16c3.09.05,3.09-4.75,0-4.8L163,16.29c-3.09-.05-3.1,4.75,0,4.8" transform="translate(0 0)"/><path class="cls-10" d="M194.72,18.23c-2.75,1.3-4.31-3.23-1.51-4.2a2.5,2.5,0,0,1,2.9,1.34,2.79,2.79,0,0,1-1.35,3.46c-1.35.74-.15,2.82,1.21,2.07a5.17,5.17,0,0,0,2.21-6.74,4.7,4.7,0,0,0-8.52,4,4.66,4.66,0,0,0,6.27,2.15c1.4-.66.18-2.73-1.21-2.07" transform="translate(0 0)"/><path class="cls-10" d="M194.72,36.26c-2.75,1.3-4.31-3.23-1.51-4.2a2.49,2.49,0,0,1,2.9,1.34,2.78,2.78,0,0,1-1.35,3.45c-1.35.75-.15,2.82,1.21,2.08a5.17,5.17,0,0,0,2.21-6.74,4.7,4.7,0,0,0-8.52,4,4.66,4.66,0,0,0,6.27,2.15c1.4-.66.18-2.73-1.21-2.07" transform="translate(0 0)"/><path class="cls-9" d="M45,69.25a221.61,221.61,0,0,0-13.05-64C30.32.89,23.36,2.76,25,7.12a214.51,214.51,0,0,1,12.8,62.13c.25,4.61,7.45,4.64,7.2,0" transform="translate(0 0)"/><path class="cls-9" d="M39.35,31.84a29.73,29.73,0,0,1,5-15.59c3-4.39,10.28-11.48,13-3.27,1.56,4.73,2,10,2.85,14.91q1.65,9.3,3.31,18.6c.82,4.58,7.68,2.61,7-1.91A70,70,0,0,1,71,18.29c.86-3.89,2.39-9.93,7.07-10.92,3.79-.8,6,2.84,7.21,5.83,3,7.22,3.23,15.88,3.5,23.57.3,8.63-.1,17.26-.5,25.89-.21,4.63,7,4.62,7.2,0C96.1,49.9,96.65,37.1,95,24.4c-1-8-2.46-18.66-10.34-23-8.32-4.54-16.41,2.43-19.24,10-4,10.91-3.74,23.71-1.92,35l7-1.91c-1.66-9.3-3.29-18.6-5-27.9C64.48,11,63,4.06,56.74,2.05,49.81-.19,43.42,5.6,39.57,10.65a37.3,37.3,0,0,0-7.42,21.19c-.2,4.63,7,4.62,7.2,0" transform="translate(0 0)"/><path class="cls-9" d="M201.22,53.18c11,5.52,14.81,18.21,11.32,29.58-3.58,11.68-13.25,19.67-23.77,25-1.72.87-.2,3.46,1.51,2.59,12.14-6.19,23.18-16.08,26-30,2.35-11.81-2.48-24.27-13.5-29.81-1.72-.87-3.25,1.72-1.52,2.59" transform="translate(0 0)"/><path class="cls-9" d="M184.79,99.7a53.7,53.7,0,0,1-14.58,10.56,1.52,1.52,0,0,0,.36,2.74,12.28,12.28,0,0,1,9.36,10.54c.27,1.91,3.16,1.1,2.89-.79a15.12,15.12,0,0,0-11.45-12.64l.36,2.74a56.22,56.22,0,0,0,15.19-11c1.35-1.38-.77-3.5-2.13-2.12" transform="translate(0 0)"/><path class="cls-9" d="M38.27,107.52c-16.37,1.31-32.2,10.47-37.05,27-4.33,14.73,3.14,30.94,18.07,35.65,1.84.58,2.63-2.31.79-2.89-14-4.44-20.16-20-15.49-33.45,5-14.32,19.22-22.12,33.68-23.27,1.91-.15,1.92-3.15,0-3" transform="translate(0 0)"/><path class="cls-9" d="M23.22,156.36A21.78,21.78,0,0,0,30.87,178l1.46-2.51a24.47,24.47,0,0,0-21.24,3.64c-1.55,1.12-.06,3.72,1.52,2.59a21.56,21.56,0,0,1,18.92-3.33c1.35.38,2.66-1.54,1.46-2.51a18.83,18.83,0,0,1-6.87-18.69c.38-1.89-2.51-2.69-2.9-.8" transform="translate(0 0)"/></g></g></g></g></g></svg>