<svg xmlns="http://www.w3.org/2000/svg" viewBox="0 0 194.73 148.05"><defs><style>.cls-1{fill:#231f20;}.cls-2{fill:#fff;}</style></defs><g id="Layer_2" data-name="Layer 2"><g id="Layer_1-2" data-name="Layer 1"><path class="cls-1" d="M186.79,88.63c1.93-.35,4.21-.43,5.94-1.46a4.58,4.58,0,0,0,2-4.14c0-4.79-4.22-9.29-7.57-12.26-7.93-7-18.37-10.13-28.7-11.33a178.3,178.3,0,0,0-18.34-.89l-19.47-.26-38.74-.52-43.74-.59a.5.5,0,0,0,0,1l73.48,1c12,.16,24.08.14,36.11.53,11,.36,22.2,1.63,31.93,7a33.64,33.64,0,0,1,12.2,11c1.32,2.09,3,5.91,1,8.09-1.43,1.52-4.42,1.51-6.33,1.85-.63.12-.37,1.08.26,1Z"/><path class="cls-1" d="M38.4,57.37,20.75,41c-2.26-2.09-4.54-4.46-7.45-5.65a8.25,8.25,0,0,0-8,.89C-.2,40.13-.22,47.43.12,53.45A100.87,100.87,0,0,0,12.78,97.07c.31.57,1.18.06.86-.5A100.64,100.64,0,0,1,1.51,58.35,77,77,0,0,1,1,48.52c.09-3.38.7-7,2.93-9.63,2-2.36,4.94-3.77,8-2.92s5.47,3.34,7.75,5.45l18,16.65c.48.44,1.18-.27.71-.7Z"/><path class="cls-1" d="M12.66,98.23a260,260,0,0,1,50.13-5.77c4.77-.08,9.54,0,14.31.15.64,0,.64-1,0-1a261.67,261.67,0,0,0-50.41,3q-7.19,1.13-14.3,2.66c-.63.14-.36,1.1.27,1Z"/><path class="cls-1" d="M75.21,92C69,105.43,68.32,120.44,63.9,134.4a58.73,58.73,0,0,1-5.07,11.74.5.5,0,0,0,.86.51c7.42-12.83,8.4-27.9,12.11-42a73.7,73.7,0,0,1,4.27-12.16c.27-.58-.59-1.09-.86-.5Z"/><path class="cls-1" d="M59.82,148l34.56-11.14c.61-.2.35-1.17-.26-1L59.56,147.06c-.61.19-.35,1.16.26,1Z"/><path class="cls-1" d="M94.68,136.65c9.38-13.91,20.86-26.21,34.81-35.61A137.72,137.72,0,0,1,142,93.59c.57-.3.07-1.16-.5-.86a126.71,126.71,0,0,0-39,31.77c-3.06,3.74-5.91,7.64-8.61,11.64-.36.54.5,1,.86.51Z"/><path class="cls-1" d="M141.71,93.66c15-1.94,30-3.45,44.95-5,.64-.07.64-1.07,0-1-15,1.56-30,3.07-44.95,5-.63.08-.64,1.08,0,1Z"/><path class="cls-1" d="M86.39,49.75A102.72,102.72,0,0,0,71.93,10.34,85.08,85.08,0,0,0,65.27,1c-.41-.5-1.11.21-.71.71,8.83,10.74,15,23.8,18.59,37.19A93.68,93.68,0,0,1,85.43,50c.09.64,1,.37,1-.27Z"/><path class="cls-1" d="M64.92,1.86,94.6,1c.64,0,.64-1,0-1L64.92.86a.5.5,0,0,0,0,1Z"/><path class="cls-2" d="M96.65,135.41l-2.18,3.68a2.5,2.5,0,0,0,2.82,3.67,2.63,2.63,0,0,0,1.49-1.15l2.19-3.68a2.6,2.6,0,0,0,.25-1.93,2.53,2.53,0,0,0-1.15-1.49,2.49,2.49,0,0,0-1.92-.25,2.58,2.58,0,0,0-1.5,1.15Z"/><path class="cls-2" d="M184,86.53a23,23,0,0,0,4.8-.77,2.49,2.49,0,0,0,1.75-3.07,2.55,2.55,0,0,0-1.15-1.5,2.64,2.64,0,0,0-1.93-.25l-3.59,1A2.52,2.52,0,0,0,182.17,85a2.5,2.5,0,0,0,3.08,1.74l3.59-1-1.33-4.82a19.61,19.61,0,0,1-2.64.54l.67-.09c-.5.06-1,.11-1.5.14a2.65,2.65,0,0,0-1.77.74A2.5,2.5,0,0,0,184,86.53Z"/><path class="cls-2" d="M186.06,82.58l-.06.32a3,3,0,0,0,0,1.33,2.54,2.54,0,0,0,3.68,1.49l.66-.36-3-3.93a3.38,3.38,0,0,1-.54.53l.5-.39a3.13,3.13,0,0,1-.71.41l.6-.25a3.64,3.64,0,0,1-.86.23l.67-.09a3.45,3.45,0,0,1-.85,0l.66.09c-.43-.06-.86-.14-1.29-.18a4,4,0,0,0-1.28.12A2.56,2.56,0,0,0,182.72,83l-.25.6a1.86,1.86,0,0,0-.05,1,2.39,2.39,0,0,0,.69,1.44l.51.39a2.43,2.43,0,0,0,1.26.34l1.16.13v-5l-1,.09a1.89,1.89,0,0,0-1,.21,1.85,1.85,0,0,0-.8.52,2.49,2.49,0,0,0-.73,1.77,2.52,2.52,0,0,0,.73,1.76,2.42,2.42,0,0,0,1.77.74l1-.09a2.83,2.83,0,0,0,1.77-.73,2.57,2.57,0,0,0,.73-1.77,2.53,2.53,0,0,0-.73-1.77l-.5-.39a2.47,2.47,0,0,0-1.27-.34l-1.16-.13.66,4.91.16,0-.67.09a2.58,2.58,0,0,1,.62,0L185,86.7a9.27,9.27,0,0,0,1.74.19,5.76,5.76,0,0,0,1.53-.25,5.68,5.68,0,0,0,2.6-1.67,1.93,1.93,0,0,0,.51-.81,1.88,1.88,0,0,0,.22-1,2.6,2.6,0,0,0-.54-1.52,2.38,2.38,0,0,0-1.3-.89,2.67,2.67,0,0,0-1.92.25l-.67.36,3.67,2.83.06-.32a1.89,1.89,0,0,0,.05-1,2,2,0,0,0-.3-.93,2.48,2.48,0,0,0-3.42-.89,2.46,2.46,0,0,0-1.15,1.49Z"/><path class="cls-1" d="M94.17.76a128.64,128.64,0,0,0,33.1,40.09,121.6,121.6,0,0,0,11.66,8.39c.54.35,1-.52.5-.86a129.24,129.24,0,0,1-36.95-35.76A117.59,117.59,0,0,1,95,.25c-.3-.57-1.16-.07-.86.51Z"/></g></g></svg>