<svg xmlns="http://www.w3.org/2000/svg" viewBox="0 0 75.76 96.13"><defs><style>.cls-1{fill:#231f20;}</style></defs><g id="Layer_2" data-name="Layer 2"><g id="Hand-drawn_Icon_Set" data-name="Hand-drawn Icon Set"><g id="Coffee"><path class="cls-1" d="M75.44,61.28c-2-10.9-10.33-17-20.69-16.79,0-.85-.09-1.69-.14-2.53a2.4,2.4,0,0,0-1.19-2c-1.32-3.3-6-4.5-9.11-5.33-5.77-1.55-11.7-.95-17.6-1.06a62.12,62.12,0,0,0-7.23.51c0-2.13,1.29-4.32,2-6.64a8.86,8.86,0,0,0-.61-7.31c-1.58-2.81-5.9-.29-4.32,2.52,1.75,3.12-2.12,7.56-2.23,10.89A9.57,9.57,0,0,0,14.41,35a63.34,63.34,0,0,0-6.85,1.92C4.39,38,.06,39.58.17,43.71c0,.07,0,.13,0,.19A2.51,2.51,0,0,0,0,45Q.36,61.49.71,78C.9,86.17,3.27,91.66,11.48,94.44c8.43,2.86,18.54,1.49,27.15.23,7.11-1,15.16-2.54,16.67-10.45a2.3,2.3,0,0,0,.82-1.83c0-.81,0-1.63,0-2.45C66.79,79.39,77.79,73.93,75.44,61.28ZM55.49,58c3,.07,6,1.67,6.35,5s-3.05,4.06-6,4.13Q55.72,62.53,55.49,58ZM16.24,39.57a12.61,12.61,0,0,0,1.31,1.53c1.87,1.85,4.56-.16,4.25-2.2,2.4-.23,4.29-.34,4.91-.34,3.21.06,6.42-.11,9.64,0,2.21.06,8,.1,9.72,1.89,1.34,1.38.89,2.31-.33,2.93a2.14,2.14,0,0,0-.85-.29,109.38,109.38,0,0,0-35,.46,2.07,2.07,0,0,0-1.53,1C7,44.36,6.07,44.09,6,43.72,5.81,41.69,11,40.37,16.24,39.57ZM50.46,83.32c-.84,7.06-15.85,7-20.76,7.33-6.59.47-15.18,1.27-20.74-3-5.23-4-3.35-14.39-3.48-20.3l-.4-18.71a26.22,26.22,0,0,0,3.24.62c6.33.93,12.86.74,19.23.69,4,0,16.1.76,22.37-2.43.65,11.45,1.26,22.9,1.2,34.37A2.64,2.64,0,0,0,50.46,83.32Zm5.61-8.38c0-1,0-1.94,0-2.92,5.41-.32,11.12-2.5,10.84-9-.25-6-5.9-10.25-11.64-10-.06-1.16-.12-2.32-.19-3.48,6.92,0,12.18,3,14.8,10.2C73.61,70.05,64.8,74.46,56.07,74.94Z"/><path class="cls-1" d="M32.39,27.05c.68,3.14,5.51,1.81,4.82-1.33-1.08-4.93,2.91-8.51,3.21-13.32A18.23,18.23,0,0,0,36.8,1.12C35-1.51,30.65,1,32.48,3.64c3.37,4.91,3.38,8.76.88,14A13.9,13.9,0,0,0,32.39,27.05Z"/></g></g></g></svg>