<svg xmlns="http://www.w3.org/2000/svg" xmlns:xlink="http://www.w3.org/1999/xlink" viewBox="0 0 381.71 280.29"><defs><style>.cls-1,.cls-4{fill:none;}.cls-2{clip-path:url(#clip-path);}.cls-3{fill:#fff;}.cls-4{stroke:#231f20;stroke-miterlimit:10;stroke-width:2px;}.cls-5{fill:#ebddc7;}.cls-6{fill:#e98d69;}.cls-7{fill:#ddc39a;}.cls-8{fill:#075fab;}.cls-9{font-size:46px;fill:#231f20;font-family:Seravek;letter-spacing:0.1em;}.cls-10{letter-spacing:0.08em;}.cls-11{letter-spacing:0.06em;}.cls-12{letter-spacing:0.1em;}.cls-13{letter-spacing:0.1em;}.cls-14{letter-spacing:0em;}</style><clipPath id="clip-path" transform="translate(0 0)"><rect class="cls-1" width="363.94" height="297.08"/></clipPath></defs><g id="Layer_2" data-name="Layer 2"><g id="Layer_1-2" data-name="Layer 1"><g id="Updated_Expat_Logo" data-name="Updated Expat Logo"><g class="cls-2"><g class="cls-2"><path class="cls-3" d="M235.42,146.76a34.17,34.17,0,1,1-34.17-34.17,34.17,34.17,0,0,1,34.17,34.17" transform="translate(0 0)"/><path class="cls-4" d="M235.42,146.76a34.17,34.17,0,1,1-34.17-34.17A34.17,34.17,0,0,1,235.42,146.76Z" transform="translate(0 0)"/><path class="cls-5" d="M210.49,95.86,144.14,92a25.43,25.43,0,0,1-23.9-26.89l.46-7.88a25.44,25.44,0,0,1,26.89-23.9l66.35,3.9a25.44,25.44,0,0,1,23.9,26.9L237.38,72a25.45,25.45,0,0,1-26.89,23.9" transform="translate(0 0)"/><path class="cls-4" d="M210.49,95.86,144.14,92a25.43,25.43,0,0,1-23.9-26.89l.46-7.88a25.44,25.44,0,0,1,26.89-23.9l66.35,3.9a25.44,25.44,0,0,1,23.9,26.9L237.38,72A25.45,25.45,0,0,1,210.49,95.86Z" transform="translate(0 0)"/><path class="cls-6" d="M333.52,21.9A15,15,0,0,0,317.26,1.22L265.63,9.85l-38.72-.6c-29.28,5.22-38.39,20.45-50.74,27.24l-8.74,4.81c-5.22,1.92-21.18,8.3-26.54,9.77C81.54,67.31,29.84,72.31,9.28,74.24l.47.66,60.86-3.69a20.36,20.36,0,0,1,6.26.62c13.38,3.08,193.46-49.66,193.46-23,0,4-4.09,9.85-13.45,17.94-9.4,6.84-58.27,46.51-62.1,66.94-5.34,28.43,28.3,49.77,37.8,53.72,5.11,2.12,27.84,6.92,46.7,9.62h.29c17.62,0,33.29-12,37.11-29.2a1.77,1.77,0,0,0,0-.37c0-6.14-14.76-63.39-16.82-72.82C295,82,307.84,61.37,307.84,61.37Z" transform="translate(0 0)"/><path class="cls-4" d="M333.52,21.9A15,15,0,0,0,317.26,1.22L265.63,9.85l-38.72-.6c-29.28,5.22-38.39,20.45-50.74,27.24l-8.74,4.81c-5.22,1.92-21.18,8.3-26.54,9.77C81.54,67.31,29.84,72.31,9.28,74.24l.47.66,60.86-3.69a20.36,20.36,0,0,1,6.26.62c13.38,3.08,193.46-49.66,193.46-23,0,4-4.09,9.85-13.45,17.94-9.4,6.84-58.27,46.51-62.1,66.94-5.34,28.43,28.3,49.77,37.8,53.72,5.11,2.12,27.84,6.92,46.7,9.62h.29c17.62,0,33.29-12,37.11-29.2a1.77,1.77,0,0,0,0-.37c0-6.14-14.76-63.39-16.82-72.82C295,82,307.84,61.37,307.84,61.37Z" transform="translate(0 0)"/><path class="cls-5" d="M260.71,71.4a105.33,105.33,0,0,1-21-2.11c-13.71-2.79-19-7.32-30.08-10-6-1.48-19.95-4.79-36.31-3.17-18.29,1.8-19.55,7.13-47.93,15-26,7.18-28.35,3.43-38.33,9.85-16.32,10.5-26.76,31.32-21.56,46.47A25.7,25.7,0,0,0,73.46,139a29.48,29.48,0,0,0,18.72,6.34,30.43,30.43,0,0,0,14.76-4.75c21.22-12.31,64.23,20.39,116.32,15.31a106.69,106.69,0,0,0,44.26-14.79c8.23-5,17.61-11,22.7-22.17,4.74-10.42,6.83-28.62-5.67-39.61-8.69-7.64-20.12-8-23.84-7.92" transform="translate(0 0)"/><path class="cls-4" d="M260.71,71.4a105.33,105.33,0,0,1-21-2.11c-13.71-2.79-19-7.32-30.08-10-6-1.48-19.95-4.79-36.31-3.17-18.29,1.8-19.55,7.13-47.93,15-26,7.18-28.35,3.43-38.33,9.85-16.32,10.5-26.76,31.32-21.56,46.47A25.7,25.7,0,0,0,73.46,139a29.48,29.48,0,0,0,18.72,6.34,30.43,30.43,0,0,0,14.76-4.75c21.22-12.31,64.23,20.39,116.32,15.31a106.69,106.69,0,0,0,44.26-14.79c8.23-5,17.61-11,22.7-22.17,4.74-10.42,6.83-28.62-5.67-39.61C275.86,71.68,264.43,71.36,260.71,71.4Z" transform="translate(0 0)"/><path class="cls-7" d="M179,204.4h0a50.81,50.81,0,0,1-50.81-50.81v-27a50.81,50.81,0,0,1,101.62,0v27A50.81,50.81,0,0,1,179,204.4" transform="translate(0 0)"/><path class="cls-4" d="M179,204.4h0a50.81,50.81,0,0,1-50.81-50.81v-27a50.81,50.81,0,0,1,101.62,0v27A50.81,50.81,0,0,1,179,204.4Z" transform="translate(0 0)"/><path class="cls-3" d="M213.55,129.16H189a8.42,8.42,0,0,1-8.42-8.42v-6.27A8.42,8.42,0,0,1,189,106h24.6a8.42,8.42,0,0,1,8.42,8.43v6.27a8.42,8.42,0,0,1-8.42,8.42" transform="translate(0 0)"/><rect class="cls-4" x="180.53" y="106.04" width="41.45" height="23.12" rx="8.42"/><path class="cls-3" d="M232.35,174.3h-73.7a9.68,9.68,0,0,1-9.69-9.68V127.29a9.69,9.69,0,0,1,9.69-9.69h73.7a9.68,9.68,0,0,1,9.68,9.69v37.33a9.68,9.68,0,0,1-9.68,9.68" transform="translate(0 0)"/><rect class="cls-4" x="148.96" y="117.6" width="93.07" height="56.7" rx="9.68"/><path class="cls-3" d="M201.25,181.26h0a34.5,34.5,0,1,1,0-69h0a34.5,34.5,0,1,1,0,69" transform="translate(0 0)"/><path class="cls-4" d="M201.25,181.26h0a34.5,34.5,0,1,1,0-69h0a34.5,34.5,0,1,1,0,69Z" transform="translate(0 0)"/><path class="cls-8" d="M201.24,120.46c-15.36,0-27.81,11.77-27.81,26.29s12.45,26.31,27.81,26.31,27.82-11.78,27.82-26.31-12.46-26.29-27.82-26.29m0,46.94c-12.05,0-21.83-9.24-21.83-20.65s9.78-20.64,21.83-20.64,21.84,9.25,21.84,20.64-9.77,20.65-21.84,20.65" transform="translate(0 0)"/><path class="cls-4" d="M201.24,120.46c-15.36,0-27.81,11.77-27.81,26.29s12.45,26.31,27.81,26.31,27.82-11.78,27.82-26.31S216.6,120.46,201.24,120.46Zm0,46.94c-12.05,0-21.83-9.24-21.83-20.65s9.78-20.64,21.83-20.64,21.84,9.25,21.84,20.64S213.31,167.4,201.24,167.4Z" transform="translate(0 0)"/><text class="cls-9" transform="translate(0 260.23)">EX<tspan class="cls-10" x="60.26" y="0">P</tspan><tspan class="cls-11" x="87.22" y="0">A</tspan><tspan x="120.98" y="0">T J</tspan><tspan class="cls-12" x="180.73" y="0">O</tspan><tspan x="219.51" y="0">U</tspan><tspan class="cls-13" x="255.21" y="0">RNA</tspan><tspan class="cls-14" x="359.99" y="0">L</tspan></text></g></g></g></g></g></svg>