<svg xmlns="http://www.w3.org/2000/svg" xmlns:xlink="http://www.w3.org/1999/xlink" viewBox="0 0 728.39 295.88"><defs><style>.cls-1,.cls-22{fill:none;}.cls-2{clip-path:url(#clip-path);}.cls-3{fill:#e88c68;}.cls-4{clip-path:url(#clip-path-3);}.cls-5,.cls-9{fill:#231f20;}.cls-6{fill:#fff;}.cls-7{fill:#065fab;}.cls-8{clip-path:url(#clip-path-5);}.cls-9{font-size:19.98px;font-family:AvenirNext-Medium, Avenir Next;font-weight:500;}.cls-10{letter-spacing:0.02em;}.cls-11{letter-spacing:0.02em;}.cls-12{letter-spacing:0.02em;}.cls-13{letter-spacing:0.02em;}.cls-14{letter-spacing:0.01em;}.cls-15{letter-spacing:-0.02em;}.cls-16{letter-spacing:0.01em;}.cls-17{letter-spacing:0.02em;}.cls-18{letter-spacing:0.01em;}.cls-19{letter-spacing:0.02em;}.cls-20{letter-spacing:0.01em;}.cls-21{clip-path:url(#clip-path-7);}.cls-22{stroke:#231f20;stroke-miterlimit:10;stroke-width:0.62px;}.cls-23{letter-spacing:0.02em;}.cls-24{letter-spacing:0em;}.cls-25{letter-spacing:0.02em;}.cls-26{letter-spacing:0.02em;}</style><clipPath id="clip-path" transform="translate(-6.48 0)"><rect class="cls-1" width="735.6" height="295.88"/></clipPath><clipPath id="clip-path-3" transform="translate(-6.48 0)"><rect class="cls-1" x="13.01" y="158.81" width="167.79" height="123.28"/></clipPath><clipPath id="clip-path-5" transform="translate(-6.48 0)"><rect class="cls-1" x="264.91" width="173.41" height="138.9"/></clipPath><clipPath id="clip-path-7" transform="translate(-6.48 0)"><rect class="cls-1" x="593.67" y="165.47" width="97.73" height="130.41"/></clipPath></defs><g id="Layer_2" data-name="Layer 2"><g id="Layer_1-2" data-name="Layer 1"><g id="Artwork_10" data-name="Artwork 10"><g class="cls-2"><g class="cls-2"><path class="cls-3" d="M134,254.91c-.76,12.55,6.69,24.12,16.85,30.94,11.24,7.54,25.61,8.43,38.33,4.42,13.33-4.22,24.34-13.3,32-24.93,8-12.22,12-26.53,13.65-40.92A195.4,195.4,0,0,0,235.88,200c0-7.06-.11-14.16-.77-21.19-1.13-11.92-4.37-24.57-14.61-31.92-5.39-3.87-13.1-5.72-19.19-2.37a11.36,11.36,0,0,0-4.61,14.58,8.74,8.74,0,0,0,7.08,4.67,11.81,11.81,0,0,0,8.8-3.21c5.64-5.06,4.88-13.66,3.86-20.42-2.31-15.31-9.57-29.66-9.93-45.29-.15-6.85,1.08-13.89,4.94-19.67a25,25,0,0,1,14.06-10.29,17.78,17.78,0,0,1,8.3-.22c3.14.67,4.48-4.15,1.33-4.83-12.17-2.62-24.51,5.15-29.82,16-6.49,13.2-3.54,28.49.3,42,2,7.16,4.35,14.27,5.66,21.62,1,5.39,2.5,13.87-2.5,17.84-1.65,1.31-4.1,2.13-6.09,1.13-1.58-.79-2.13-2.44-2.06-4.27a6.68,6.68,0,0,1,2.31-4.71,10,10,0,0,1,7.84-1.4c11.36,2.21,16.53,14,18.43,24.25a109,109,0,0,1,1.46,16.83c.22,7.76.36,15.53,0,23.29-.58,14-2.73,28.12-8.63,40.9-5.34,11.58-13.56,21.83-24.8,28.1-10.68,5.95-23.85,8.34-35.63,4.33-10.29-3.5-19.24-12.19-21.94-22.86a25.43,25.43,0,0,1-.71-7.92c.19-3.22-4.81-3.2-5,0" transform="translate(-6.48 0)"/><path class="cls-3" d="M230.18,41.34a30,30,0,0,0,21.95,21.29l-.6-4.57a28.71,28.71,0,0,0-12.89,30.11c.7,3.14,5.52,1.81,4.82-1.33-2.07-9.36,2.53-19.44,10.6-24.46,1.75-1.1,1.56-4.06-.6-4.57A25,25,0,0,1,235,40c-.79-3.12-5.61-1.8-4.82,1.33" transform="translate(-6.48 0)"/></g><g class="cls-4"><path class="cls-5" d="M174,232.61c1.66-.3,3.62-.36,5.11-1.22a3.79,3.79,0,0,0,1.73-3.44c0-4-3.64-7.74-6.53-10.21-6.83-5.85-15.83-8.44-24.73-9.44-5.24-.59-10.53-.67-15.81-.74L117,207.34l-33.38-.43-37.69-.49a.42.42,0,0,0,0,.84l63.32.82c10.36.13,20.75.11,31.11.44,9.43.3,19.13,1.36,27.52,5.86a28.58,28.58,0,0,1,10.51,9.14c1.13,1.74,2.59,4.92.83,6.74-1.23,1.27-3.81,1.26-5.45,1.54-.55.1-.32.9.23.81" transform="translate(-6.48 0)"/><path class="cls-5" d="M46.1,206.57,30.9,193c-2-1.74-3.92-3.71-6.42-4.71a7.31,7.31,0,0,0-6.9.75c-4.74,3.2-4.75,9.28-4.47,14.29A82.12,82.12,0,0,0,24,239.64a.43.43,0,0,0,.74-.42,81.62,81.62,0,0,1-10.45-31.83,58.85,58.85,0,0,1-.44-8.18c.07-2.82.6-5.79,2.52-8a6.84,6.84,0,0,1,6.91-2.43c2.65.71,4.7,2.78,6.67,4.53l15.51,13.87c.41.37,1-.22.61-.59" transform="translate(-6.48 0)"/><path class="cls-5" d="M23.92,240.6a231.3,231.3,0,0,1,43.2-4.8q6.16-.11,12.32.13a.42.42,0,1,0,0-.84A233.72,233.72,0,0,0,36,237.58q-6.19.94-12.32,2.21c-.54.12-.31.92.23.81" transform="translate(-6.48 0)"/><path class="cls-5" d="M77.82,235.43c-5.37,11.16-5.94,23.66-9.75,35.29a47.84,47.84,0,0,1-4.37,9.78c-.28.46.47.88.75.42,6.39-10.68,7.23-23.23,10.43-34.94a59.83,59.83,0,0,1,3.68-10.13c.23-.48-.51-.91-.74-.42" transform="translate(-6.48 0)"/><path class="cls-5" d="M64.56,282.06l29.78-9.28a.42.42,0,0,0-.23-.8l-29.78,9.28a.42.42,0,0,0,.23.8" transform="translate(-6.48 0)"/><path class="cls-5" d="M94.59,272.59a110.24,110.24,0,0,1,30-29.65,118,118,0,0,1,10.75-6.2c.49-.25,0-1-.44-.72a108.52,108.52,0,0,0-33.63,26.46c-2.63,3.11-5.09,6.36-7.42,9.69-.31.45.44.86.74.42" transform="translate(-6.48 0)"/><path class="cls-5" d="M135.12,236.8c12.89-1.62,25.81-2.88,38.73-4.18.55-.05.55-.89,0-.83-12.92,1.3-25.84,2.56-38.73,4.17-.54.07-.55.9,0,.84" transform="translate(-6.48 0)"/><path class="cls-5" d="M87.45,200.24A83.69,83.69,0,0,0,75,167.41a69.81,69.81,0,0,0-5.74-7.77c-.35-.41-1,.18-.61.59a81.51,81.51,0,0,1,16,31,73.29,73.29,0,0,1,2,9.26c.08.53.91.3.83-.22" transform="translate(-6.48 0)"/><path class="cls-5" d="M69,160.35l25.58-.71a.42.42,0,0,0,0-.83L69,159.52a.42.42,0,1,0,0,.83" transform="translate(-6.48 0)"/><path class="cls-6" d="M96.29,271.56l-1.88,3.06a2.14,2.14,0,0,0-.22,1.6,2.16,2.16,0,0,0,1,1.25,2.29,2.29,0,0,0,1.66.21,2.24,2.24,0,0,0,1.29-1l1.88-3.06a2.07,2.07,0,0,0,.22-1.61,2.14,2.14,0,0,0-1-1.24,2.24,2.24,0,0,0-1.66-.21,2.27,2.27,0,0,0-1.29,1" transform="translate(-6.48 0)"/><path class="cls-6" d="M171.59,230.86a21.48,21.48,0,0,0,4.14-.64,2.24,2.24,0,0,0,1.29-1,2.08,2.08,0,0,0,.22-1.6,2.14,2.14,0,0,0-1-1.24,2.29,2.29,0,0,0-1.66-.21l-3.1.79a2.24,2.24,0,0,0-1.29,1,2,2,0,0,0-.21,1.6,2.11,2.11,0,0,0,1,1.25,2.34,2.34,0,0,0,1.66.21l3.1-.8-1.14-4a19.52,19.52,0,0,1-2.28.44l.57-.07-1.29.12a2.34,2.34,0,0,0-1.53.61,2,2,0,0,0,0,2.94,2.18,2.18,0,0,0,1.53.61" transform="translate(-6.48 0)"/><path class="cls-6" d="M173.33,227.57a2,2,0,0,1-.05.26,2.45,2.45,0,0,0,0,1.11,2.07,2.07,0,0,0,.78,1.08,2.25,2.25,0,0,0,2.39.17l.57-.31-2.61-3.27a2.45,2.45,0,0,1-.47.44l.44-.32a2.87,2.87,0,0,1-.62.34l.52-.21a2.69,2.69,0,0,1-.74.19l.58-.07a3.05,3.05,0,0,1-.74,0l.57.07c-.37,0-.73-.11-1.11-.15a3.71,3.71,0,0,0-1.1.11,2.18,2.18,0,0,0-1.29.95l-.21.5a1.47,1.47,0,0,0,0,.83,1.94,1.94,0,0,0,.59,1.2l.44.32a2.27,2.27,0,0,0,1.08.29l1,.1V227l-.85.07a2.49,2.49,0,0,0-1.53.61,2,2,0,0,0,0,2.94,2.14,2.14,0,0,0,1.53.61l.85-.07a1.71,1.71,0,0,0,.83-.18,1.56,1.56,0,0,0,.69-.43,2,2,0,0,0,0-2.94l-.44-.33a2.12,2.12,0,0,0-1.08-.28l-1-.11c.2,1.36.39,2.73.58,4.09l.13,0-.57.07a2.36,2.36,0,0,1,.53,0l-.57-.07a8.28,8.28,0,0,0,1.49.16,5,5,0,0,0,1.32-.21,4.89,4.89,0,0,0,2.24-1.39,1.48,1.48,0,0,0,.44-.67,1.5,1.5,0,0,0,.19-.8,2.14,2.14,0,0,0-.47-1.27,2,2,0,0,0-1.11-.74,2.33,2.33,0,0,0-1.66.21l-.58.3,3.17,2.35a2.38,2.38,0,0,1,.05-.26,2.25,2.25,0,0,0-.22-1.61,2.15,2.15,0,0,0-1.29-.95,2.23,2.23,0,0,0-1.66.21,2.11,2.11,0,0,0-1,1.24" transform="translate(-6.48 0)"/><path class="cls-5" d="M94.15,159.44a110.16,110.16,0,0,0,38.57,40.37.42.42,0,0,0,.44-.72,109.65,109.65,0,0,1-31.85-29.78A97,97,0,0,1,94.9,159c-.26-.48-1-.06-.75.42" transform="translate(-6.48 0)"/></g><g class="cls-2"><path class="cls-7" d="M75,164.94l17.28-1-2.16-1.24a89.33,89.33,0,0,0,33.45,37.21c2.74,1.7,5.26-2.62,2.53-4.32a84.65,84.65,0,0,1-31.67-35.42A2.42,2.42,0,0,0,92.23,159l-17.28,1c-3.2.18-3.22,5.18,0,5" transform="translate(-6.48 0)"/><path class="cls-7" d="M118.68,214.25c6.84.53,13.77-.4,20.62-.37A86.57,86.57,0,0,1,152.16,215c4.6.71,9.36,1.75,13.42,4.13a21.34,21.34,0,0,1,8.51,9.63,2.53,2.53,0,0,0,3.42.9,2.57,2.57,0,0,0,.9-3.43,26.3,26.3,0,0,0-8.24-10c-3.93-2.9-8.72-4.45-13.46-5.43a99.25,99.25,0,0,0-15.56-1.86c-3.58-.16-7.18.05-10.76.19a101.68,101.68,0,0,1-11.71.14,2.5,2.5,0,0,0,0,5" transform="translate(-6.48 0)"/><path class="cls-7" d="M21.31,195.63c.19-.34,0-.06.14-.21s-.23.12.1,0c-.1,0,.6-.15.38-.13a1.36,1.36,0,0,1,.95.08,4,4,0,0,1,1,.51c1.71,1.18,3.05,3.11,4.42,4.65l10.1,11.35a2.5,2.5,0,1,0,3.53-3.54l-12-13.49c-1.69-1.9-3.6-3.92-6.21-4.42A6.16,6.16,0,0,0,17,193.11c-1.56,2.81,2.75,5.34,4.31,2.52" transform="translate(-6.48 0)"/></g><g class="cls-8"><path class="cls-5" d="M299.48,122.11a.42.42,0,1,0,0-.83.42.42,0,0,0,0,.83" transform="translate(-6.48 0)"/><path class="cls-6" d="M299.44,122.06a.42.42,0,0,0,0-.83.42.42,0,1,0,0,.83" transform="translate(-6.48 0)"/><path class="cls-6" d="M299.43,122.6l-.19.52c-.15.41.43.69.72.41l2-2a.42.42,0,0,0-.52-.65,2.73,2.73,0,0,0-1.27,2.89.44.44,0,0,0,.72.19,2,2,0,0,0,.16-2.5.44.44,0,0,0-.8.21c0,.24-.07.48-.1.73h.86c0-.51,0-1,0-1.51l-.73.29c.31.38.61.76.92,1.13s.81,0,.72-.4l-1.11-4.72-.83.22,1,3.59.78-.32-.21-.44a.44.44,0,0,0-.74,0c-.27.56-.54,1.11-.8,1.67h.74c-.41-.57-.81-1.14-1.22-1.7a.44.44,0,0,0-.8.21c-.07.51-.13,1-.2,1.54l.84-.11-.27-.7a.43.43,0,0,0-.83.22c.33,1.59.67,3.18,1,4.77l.84-.22a20.7,20.7,0,0,0-1.34-2.91c-.61-1-1.22-1.93-1.84-2.89a.43.43,0,0,0-.8.21c0,.9,0,1.81,0,2.71a.67.67,0,0,0,.53.69,1.89,1.89,0,0,0,.94.09,1.66,1.66,0,0,0,.93-2.83.44.44,0,0,0-.74.29l-.24,3.85c0,.54.83.54.86,0l.24-3.85-.73.3a.86.86,0,0,1-1.14,1.27l.22.36c0-1,0-1.92,0-2.88l-.8.21,1.74,2.74a19.08,19.08,0,0,1,1.34,2.86.44.44,0,0,0,.84-.22c-.35-1.59-.68-3.18-1-4.77l-.83.22.27.7a.44.44,0,0,0,.85-.11c.07-.51.13-1,.2-1.54l-.8.21,1.22,1.7a.44.44,0,0,0,.74,0l.8-1.67h-.74l.21.44c.21.44.91.13.79-.32l-1-3.59a.43.43,0,0,0-.83.22l1.11,4.72.72-.41c-.31-.37-.62-.75-.92-1.13s-.74,0-.74.3c0,.5,0,1,0,1.51s.79.51.86,0c0-.25.07-.49.1-.73l-.8.21a1.18,1.18,0,0,1,0,1.49l.72.18a1.87,1.87,0,0,1,.87-2l-.52-.66-2,2,.72.4.19-.52c.18-.51-.65-.73-.83-.22" transform="translate(-6.48 0)"/><path class="cls-6" d="M277.18,111.91a14.6,14.6,0,0,1,10.45,10l.53-.52-.56-.13c-.4-.1-.76.41-.42.69a1,1,0,0,1,.4.86.43.43,0,0,0,.86,0,1.8,1.8,0,0,0-.65-1.44l-.42.69.56.14a.43.43,0,0,0,.53-.51,15.45,15.45,0,0,0-11-10.6c-.53-.13-.76.67-.23.8" transform="translate(-6.48 0)"/><path class="cls-5" d="M271.55,91.89a.42.42,0,0,0,0-.83.42.42,0,1,0,0,.83" transform="translate(-6.48 0)"/><path class="cls-6" d="M272.18,94.88V88.26a.43.43,0,0,0-.86,0v6.62a.43.43,0,0,0,.86,0" transform="translate(-6.48 0)"/><path class="cls-6" d="M278.37,87.38c0,1.43-1.68,1.91-2.87,2-1.52.11-3-.39-4.52-.29s-2.86.7-3.2,2.13a2.76,2.76,0,0,0,1.87,3.21,2.79,2.79,0,0,0,3.43-2.71.44.44,0,0,0-.43-.42L269,90.86c-.55-.07-.54.76,0,.83l3.64.44-.43-.42a1.88,1.88,0,0,1-2.92,1.6,1.81,1.81,0,0,1,.23-3c1.15-.62,2.69-.39,3.93-.21a7.92,7.92,0,0,0,3.59-.15,2.71,2.71,0,0,0,2.18-2.54c0-.53-.87-.53-.86,0" transform="translate(-6.48 0)"/><path class="cls-6" d="M265.33,96.37h22a.42.42,0,1,0,0-.83h-22a.42.42,0,1,0,0,.83" transform="translate(-6.48 0)"/><path class="cls-6" d="M313.48,93.84h6.81a.42.42,0,0,0,0-.83h-6.81a.42.42,0,0,0,0,.83" transform="translate(-6.48 0)"/><path class="cls-5" d="M289.14,133.13q-3.56-25.5-5.16-51.21c-1.06-17.18-1.45-34.41-1.06-51.63q.33-14.32,1.42-28.63c0-.53-.82-.53-.86,0C282.15,18.8,281.71,36,282,53.17s1.29,34.56,3,51.78q1.38,14.24,3.36,28.41c.07.52.91.3.83-.23" transform="translate(-6.48 0)"/><path class="cls-5" d="M283.91,2.08a529.64,529.64,0,0,0,56.85,4.27,531.33,531.33,0,0,0,57-1.86Q413.53,3.13,429.21.81c.55-.08.31-.88-.23-.8a527.82,527.82,0,0,1-56.86,5.24,530.41,530.41,0,0,1-56.39-.85q-16-1.1-31.82-3.16c-.55-.07-.55.77,0,.84" transform="translate(-6.48 0)"/><path class="cls-5" d="M428.68.52a406.54,406.54,0,0,1,7.13,50.32,512.79,512.79,0,0,1,1.56,51.41q-.25,14.07-1.26,28.11c0,.54.83.54.86,0,1.2-16.89,1.61-33.84,1.21-50.76a474.82,474.82,0,0,0-4-51.65C433,18.69,431.43,9.46,429.51.3c-.11-.53-.94-.3-.83.22" transform="translate(-6.48 0)"/><path class="cls-5" d="M436.54,130l-56.06,3.15L323,136.33l-31,1.74c-.55,0-.55.87,0,.83l56.07-3.15,57.51-3.23,30.94-1.74c.55,0,.56-.86,0-.83" transform="translate(-6.48 0)"/><path class="cls-5" d="M292.14,85.22a59.33,59.33,0,0,0,28.21-12A55.45,55.45,0,0,0,338.17,48.4a53.81,53.81,0,0,0,3.18-17.34c0-.53-.85-.53-.86,0a54.14,54.14,0,0,1-9.18,29.07,56,56,0,0,1-22.94,19.42,58.23,58.23,0,0,1-16.46,4.86c-.55.08-.31.88.23.81" transform="translate(-6.48 0)"/><path class="cls-5" d="M341,34c5.47,6.78,9.89,14.27,15.36,21.05.34.42.95-.17.61-.59-5.47-6.78-9.89-14.27-15.36-21-.34-.42-.94.17-.61.59" transform="translate(-6.48 0)"/><path class="cls-5" d="M357.08,54.62c-2.83-7.2,2.13-14.43,6.84-19.67,5.29-5.87,10.81-11.56,16.22-17.33l-.72-.19c3.69,19.42,17.89,36.36,36.29,44.71A62.25,62.25,0,0,0,431.94,67c.54.08.77-.72.23-.81A64.3,64.3,0,0,1,385.7,32.84a56.59,56.59,0,0,1-5.44-15.63.44.44,0,0,0-.72-.18c-5.74,6.12-11.72,12.1-17.2,18.44-4.53,5.22-8.83,12.4-6.09,19.37.2.5,1,.28.83-.22" transform="translate(-6.48 0)"/><path class="cls-5" d="M305.31,78.15a21.08,21.08,0,0,1-6.25-23.39c3.08-8.39,11-14.45,19.86-16.27a34.16,34.16,0,0,1,17.4,1.16.42.42,0,0,0,.23-.8c-9.81-3.23-21.17-2.24-29.48,4-7.25,5.46-11.41,14.23-9.8,23.11a21.38,21.38,0,0,0,7.43,12.75c.42.35,1-.24.61-.58" transform="translate(-6.48 0)"/><path class="cls-5" d="M419.46,101.38C419.23,95,417.93,87,412.12,83.1c-7.14-4.82-15.58.5-21.94,4-17.39,9.43-37.6,5.82-56.57,8-8.4,1-16.93,3-24,7.63-3.27,2.13-6.57,4.77-8.09,8.39-1.41,3.33-.49,7,3.31,8.2a20.49,20.49,0,0,0,6.25.51l8.38,0,17-.09c11.13-.05,22.26-.08,33.38-.2s22.19-.35,33.27-.9c4.34-.21,9.38-.38,13.05-2.94,2.69-1.88,2.88-5.74,3-8.64.11-1.86.13-3.73.31-5.59.05-.53-.81-.53-.86,0-.33,3.53,0,7.3-1.09,10.72a5.75,5.75,0,0,1-3.29,3.6,20.79,20.79,0,0,1-6.91,1.73c-4.94.51-10,.56-14.92.72-5.26.18-10.52.29-15.78.38-21,.33-42,.3-63,.41-3.59,0-10.43,1-11.78-3.43-1.18-3.89,2.45-7.7,5.24-10,6.35-5.2,14.48-7.8,22.59-9.11,17.45-2.82,35.8.55,52.8-5.1a73,73,0,0,0,11.89-5.63c3.7-2,7.77-3.92,12.14-3.62,7.3.5,10.45,7.62,11.52,13.72a40.25,40.25,0,0,1,.56,5.59c0,.53.88.54.86,0" transform="translate(-6.48 0)"/></g><g class="cls-2"><path class="cls-7" d="M375.1,23.57c5.47,19,19.58,35.1,37.22,43.89a72,72,0,0,0,16.15,5.82c3.14.71,4.47-4.11,1.33-4.82a69.05,69.05,0,0,1-43.77-32,61.77,61.77,0,0,1-6.11-14.2c-.89-3.09-5.72-1.78-4.82,1.33" transform="translate(-6.48 0)"/><path class="cls-7" d="M292.94,90.88c19.4.31,38.17-9.58,48.23-26.28a52.23,52.23,0,0,0,5.9-14.21c.78-3.12-4-4.45-4.82-1.33A49,49,0,0,1,308,83.91a52.08,52.08,0,0,1-15.1,2c-3.22,0-3.22,5,0,5" transform="translate(-6.48 0)"/></g><text class="cls-9" transform="translate(3.74 50.39) scale(1.03 1)"><tspan class="cls-10">Hop</tspan><tspan class="cls-11" x="40.81" y="0"> </tspan><tspan class="cls-10" x="46.24" y="0">on</tspan><tspan class="cls-11" x="70.98" y="0"> </tspan><tspan class="cls-12" x="76.42" y="0">a</tspan><tspan class="cls-11" x="87.71" y="0"> </tspan><tspan class="cls-10" x="93.15" y="0">ﬂig</tspan><tspan class="cls-13" x="123.8" y="0">ht</tspan><tspan x="142.93" y="0"> </tspan></text><text class="cls-9" transform="translate(9.24 74.37) scale(1.03 1)"><tspan class="cls-10">an</tspan><tspan class="cls-13" x="23.38" y="0">d t</tspan><tspan class="cls-14" x="48.96" y="0">r</tspan><tspan class="cls-10" x="56.38" y="0">a</tspan><tspan class="cls-13" x="67.67" y="0">vel the</tspan><tspan x="132.16" y="0"> </tspan></text><text class="cls-9" transform="translate(0 98.36) scale(1.03 1)"><tspan class="cls-11">w</tspan><tspan class="cls-12" x="15.89" y="0">o</tspan><tspan class="cls-13" x="28.54" y="0">rld</tspan><tspan class="cls-15" x="54.98" y="0">’</tspan><tspan class="cls-10" x="59.41" y="0">s</tspan><tspan class="cls-11" x="68.75" y="0"> </tspan><tspan class="cls-16" x="74.18" y="0">ex</tspan><tspan class="cls-10" x="96.36" y="0">ci</tspan><tspan class="cls-13" x="112.33" y="0">t</tspan><tspan class="cls-10" x="119.34" y="0">ing</tspan><tspan x="150.16" y="0"> </tspan></text><text class="cls-9" transform="translate(43.16 122.34) scale(1.03 1)"><tspan class="cls-13">l</tspan><tspan class="cls-10" x="5.64" y="0">oca</tspan><tspan class="cls-13" x="39.91" y="0">le</tspan><tspan x="57.43" y="0">s</tspan></text><text class="cls-9" transform="translate(277.31 179.89) scale(1.03 1)"><tspan class="cls-10">Do</tspan><tspan class="cls-17" x="28.32" y="0" xml:space="preserve"> wh</tspan><tspan class="cls-18" x="61.75" y="0">a</tspan><tspan class="cls-13" x="72.84" y="0">t y</tspan><tspan class="cls-10" x="95.8" y="0">ou</tspan><tspan class="cls-13" x="120.54" y="0" xml:space="preserve"> d</tspan><tspan class="cls-10" x="139.11" y="0">o</tspan><tspan x="151.76" y="0"> </tspan></text><text class="cls-9" transform="translate(290.47 203.87) scale(1.03 1)"><tspan class="cls-10">b</tspan><tspan class="cls-17" x="13.17" y="0">e</tspan><tspan class="cls-10" x="25.06" y="0">s</tspan><tspan class="cls-13" x="34.39" y="0">t</tspan><tspan class="cls-19" x="41.41" y="0">:</tspan><tspan class="cls-13" x="47.86" y="0"> </tspan><tspan class="cls-10" x="53.3" y="0">cap</tspan><tspan class="cls-13" x="88.05" y="0">t</tspan><tspan class="cls-10" x="95.06" y="0">u</tspan><tspan class="cls-20" x="107.15" y="0">r</tspan><tspan class="cls-17" x="114.49" y="0" xml:space="preserve">e  </tspan><tspan x="137.25" y="0"> </tspan></text><text class="cls-9" transform="translate(305.81 227.86) scale(1.03 1)"><tspan class="cls-10">inc</tspan><tspan class="cls-20" x="28.06" y="0">r</tspan><tspan class="cls-17" x="35.39" y="0">ed</tspan><tspan class="cls-10" x="60.41" y="0">ib</tspan><tspan class="cls-17" x="79.22" y="0" xml:space="preserve">le     </tspan><tspan x="123.92" y="0"> </tspan></text><text class="cls-9" transform="translate(294.04 251.84) scale(1.03 1)"><tspan class="cls-13">m</tspan><tspan class="cls-10" x="18.17" y="0">o</tspan><tspan class="cls-13" x="30.82" y="0">me</tspan><tspan class="cls-10" x="60.87" y="0">n</tspan><tspan class="cls-17" x="72.96" y="0">t</tspan><tspan class="cls-10" x="79.98" y="0">s</tspan><tspan class="cls-13" x="89.31" y="0"> </tspan><tspan class="cls-10" x="94.74" y="0">on</tspan><tspan x="119.48" y="0"> </tspan></text><text class="cls-9" transform="translate(319.46 275.82) scale(1.03 1)"><tspan class="cls-10">ca</tspan><tspan class="cls-13" x="21.62" y="0">me</tspan><tspan class="cls-14" x="51.68" y="0">r</tspan><tspan x="59.09" y="0">a</tspan></text><g class="cls-21"><path class="cls-6" d="M653.2,224.66a3.27,3.27,0,0,1-.8,2.07,2.87,2.87,0,0,1-.42-1.46,3.16,3.16,0,0,1,.84-2.06,3,3,0,0,1,.38,1.45" transform="translate(-6.48 0)"/><path class="cls-22" d="M653.2,224.66a3.27,3.27,0,0,1-.8,2.07,2.87,2.87,0,0,1-.42-1.46,3.16,3.16,0,0,1,.84-2.06A3,3,0,0,1,653.2,224.66Z" transform="translate(-6.48 0)"/><path class="cls-6" d="M652.82,223.21a3,3,0,0,1,.38,1.45,3.27,3.27,0,0,1-.8,2.07,2.87,2.87,0,0,1-.42-1.46,3.14,3.14,0,0,1,.84-2.06" transform="translate(-6.48 0)"/><path class="cls-22" d="M652.82,223.21a3,3,0,0,1,.38,1.45,3.27,3.27,0,0,1-.8,2.07,2.87,2.87,0,0,1-.42-1.46A3.14,3.14,0,0,1,652.82,223.21Z" transform="translate(-6.48 0)"/><path class="cls-6" d="M672.41,225.27a2.6,2.6,0,0,1-.06.56,2.53,2.53,0,0,1-.1-1.22.9.9,0,0,1,0-.16,2.81,2.81,0,0,1,.13.82" transform="translate(-6.48 0)"/><path class="cls-22" d="M672.41,225.27a2.6,2.6,0,0,1-.06.56,2.53,2.53,0,0,1-.1-1.22.9.9,0,0,1,0-.16A2.81,2.81,0,0,1,672.41,225.27Z" transform="translate(-6.48 0)"/><path class="cls-5" d="M630.63,223.43c-.56-.24-.33-1.71-.33-2.15V177.41a17.85,17.85,0,0,0-.23-3.86,10.84,10.84,0,0,0-9.23-8,11.67,11.67,0,0,0-10.41,3.86,9.86,9.86,0,0,0-2.3,6.45v51.78c0,.9.08,1.83,0,2.74a9.7,9.7,0,0,1-.83,2.31,36.06,36.06,0,0,0-2,14.86c0,.38.68.38.65,0a35.46,35.46,0,0,1,2.14-15.21,6.45,6.45,0,0,0,.67-2V177.29c0-.55,0-1.11,0-1.67a9.71,9.71,0,0,1,6.48-8.86,11.1,11.1,0,0,1,12.6,3.5,10.08,10.08,0,0,1,1.79,6.23v27.79q0,6.66,0,13.33v4c0,.75-.28,2,.65,2.37.37.16.7-.35.32-.51" transform="translate(-6.48 0)"/><path class="cls-6" d="M672.41,225.27a2.6,2.6,0,0,1-.06.56,2.53,2.53,0,0,1-.1-1.22.9.9,0,0,1,0-.16,2.81,2.81,0,0,1,.13.82" transform="translate(-6.48 0)"/><path class="cls-22" d="M672.41,225.27a2.6,2.6,0,0,1-.06.56,2.53,2.53,0,0,1-.1-1.22.9.9,0,0,1,0-.16A2.81,2.81,0,0,1,672.41,225.27Z" transform="translate(-6.48 0)"/><path class="cls-5" d="M689,227.25c-2.33,15.34,4.74,31-.18,46.13a26,26,0,0,1-6.7,10.91c-.36.34.21.86.57.52,5.75-5.46,8.14-13.08,8.6-20.5.48-7.84-1-15.62-1.69-23.41a57.71,57.71,0,0,1,.17-13.46c.07-.46-.7-.66-.77-.19" transform="translate(-6.48 0)"/><path class="cls-5" d="M605.46,247.68q1.51,8.79,3,17.6c.07.37.69.21.62-.16q-1.51-8.81-3-17.6c-.07-.37-.69-.21-.62.16" transform="translate(-6.48 0)"/><path class="cls-5" d="M606.41,251.77c-.41-1.9-2.86-1.76-4.43-1.31a7.46,7.46,0,0,0-5,4.31,29.23,29.23,0,0,0-1.3,4c-.46,1.63-.91,3.28-1.27,4.93a26.84,26.84,0,0,0-.59,9.19,15.63,15.63,0,0,0,3.17,7.73,23.23,23.23,0,0,0,6.86,5.41,77.54,77.54,0,0,0,18.26,7.24,82.67,82.67,0,0,0,22.39,2.63.3.3,0,1,0,0-.59,81,81,0,0,1-35.94-7.56c-5.27-2.47-10.79-5.46-13-10.78-2.28-5.48-1.09-11.45.44-16.95.74-2.69,1.29-6.25,3.94-8,1.25-.82,5.32-2.4,5.82-.07.08.37.7.21.62-.16" transform="translate(-6.48 0)"/><path class="cls-5" d="M689.29,230a12.18,12.18,0,0,0-10.46-9.11c-.41-.06-.59.51-.18.57a11.57,11.57,0,0,1,10,8.7c.09.37.71.21.63-.16" transform="translate(-6.48 0)"/><path class="cls-5" d="M610.59,176.27a4.53,4.53,0,0,0,2.48,4.32c1.91,1.12,4.33,1.15,6.52,1,1.88-.11,4.34-.23,5.77-1.5a7.7,7.7,0,0,0,2.26-4.27c.09-.47-.69-.67-.77-.2a7.44,7.44,0,0,1-1.79,3.68c-1.2,1.29-3.47,1.42-5.19,1.53a12.28,12.28,0,0,1-5.87-.64,4,4,0,0,1-2.6-3.95c.07-.47-.74-.47-.81,0" transform="translate(-6.48 0)"/><path class="cls-5" d="M630.16,225a.3.3,0,1,0,0-.59.3.3,0,1,0,0,.59" transform="translate(-6.48 0)"/><path class="cls-5" d="M681.25,221.5c-3.37-1.2-7.61-.45-9.36,2.69-.19.34.37.64.56.3a5.81,5.81,0,0,1,3.4-2.65,8.36,8.36,0,0,1,5.23.23.3.3,0,1,0,.17-.57" transform="translate(-6.48 0)"/><path class="cls-5" d="M672.44,223.84c-2.08-2.91-6-3.82-9.54-4-3.79-.17-7.72.66-10.45,3.21-.29.27.17.69.46.42,2.53-2.38,6.16-3.17,9.69-3s7.28.9,9.28,3.71c.23.32.79,0,.56-.3" transform="translate(-6.48 0)"/><path class="cls-5" d="M653.16,223c-2.8-3.46-7.63-4.31-12.08-4.14s-8.86,1.56-11,5.4c-.19.34.37.64.56.3,2.06-3.66,6.22-4.94,10.47-5.11s8.87.56,11.52,3.84c.24.31.8,0,.56-.29" transform="translate(-6.48 0)"/><path class="cls-6" d="M653.21,227.26l0,0c.06.12.11.24.16.35l-.06-.2.06.4a1.5,1.5,0,0,1,0-.3l-.06.4a1.4,1.4,0,0,1,.09-.29l-.16.36a1,1,0,0,1,.14-.22l-.25.29a1.11,1.11,0,0,1,.19-.18l-.33.24a.7.7,0,0,1,.24-.13l-.39.15a4.21,4.21,0,0,1,.48-.12,2.4,2.4,0,0,0,1.06-.52,1.73,1.73,0,0,0,.4-2.26,1.62,1.62,0,0,0-1-.68l-.43,0a1.73,1.73,0,0,0-.81.2l-.24.1.38-.15a3.58,3.58,0,0,1-.81.22l.43-.05a1.7,1.7,0,0,1-.45,0l.42.06-.33-.09.39.15a1.3,1.3,0,0,1-.26-.14l.33.23a.8.8,0,0,1-.17-.15l.25.3a.76.76,0,0,1-.12-.19,3.73,3.73,0,0,1,.16.35,1,1,0,0,1,0-.17l.06.39a.49.49,0,0,1,0-.17l-.06.39a.83.83,0,0,1,.06-.21l-.16.35a.76.76,0,0,1,.12-.19l-.25.3.13-.12-.33.23a.84.84,0,0,1,.21-.11l-.39.15.05,0a1.68,1.68,0,0,0,1-.68,1.37,1.37,0,0,0,.16-1.13,1.5,1.5,0,0,0-.74-.89,1.77,1.77,0,0,0-1.24-.14,2.47,2.47,0,0,0-1.06.59,2.32,2.32,0,0,0-.61,1,2.12,2.12,0,0,0,.67,2.17,3.17,3.17,0,0,0,2,.71,5.87,5.87,0,0,0,2.09-.54l-2.21-.53,0,0a3.73,3.73,0,0,0-.16-.35.19.19,0,0,1,0,.08c0-.14,0-.27-.05-.4a.19.19,0,0,1,0,.08l.06-.39,0,.08.17-.35a1,1,0,0,1-.08.11l.25-.29-.1.09.32-.23-.13.07.38-.15a2.92,2.92,0,0,1-.4.1,3.19,3.19,0,0,0-.7.23,2.67,2.67,0,0,0-1,.88,2.55,2.55,0,0,0-.42,1.21,2.34,2.34,0,0,0,.31,1.26,1.58,1.58,0,0,0,1,.68,1.77,1.77,0,0,0,1.24-.15,1.49,1.49,0,0,0,.74-.88l.06-.39a1.34,1.34,0,0,0-.22-.75" transform="translate(-6.48 0)"/><path class="cls-6" d="M655.4,223.61l-.09-.07a1.58,1.58,0,0,0-.71-.38,1.39,1.39,0,0,0-.64,0,1.24,1.24,0,0,0-.6.18,1.48,1.48,0,0,0-.58.53h0a3.47,3.47,0,0,1,.25-.29l0,0,.33-.23-.06,0,.38-.15h-.07l.43-.05h-.06l.42.05h0c.13.9.26,1.8.38,2.7l.3-.2a1.22,1.22,0,0,0,.46-.38,1.1,1.1,0,0,0,.29-.5,1.08,1.08,0,0,0,0-.59,1,1,0,0,0-.19-.55l-.25-.3a1.69,1.69,0,0,0-.71-.38l-.43-.05a1.73,1.73,0,0,0-.81.2l-.3.2-.33.23-.25.3-.16.35a1,1,0,0,0,0,.59.7.7,0,0,0,.11.37.72.72,0,0,0,.21.33.7.7,0,0,0,.28.26,1.35,1.35,0,0,0,.55.27h0l.43.05H654l.43-.05h.06l.2-.08.2-.08h0l0,0a3.88,3.88,0,0,0,.33-.23h0l0,0h0a.91.91,0,0,0,.13-.16l.13-.15-2.53.3.09.07a1.23,1.23,0,0,0,.52.3,1.28,1.28,0,0,0,.62.13,1.33,1.33,0,0,0,.62-.13,1.29,1.29,0,0,0,.52-.3l.25-.3a1.43,1.43,0,0,0,.22-.75l-.06-.39a1.44,1.44,0,0,0-.41-.65" transform="translate(-6.48 0)"/><path class="cls-6" d="M654.22,225.89a1.48,1.48,0,1,0,0-2.95,1.48,1.48,0,1,0,0,2.95" transform="translate(-6.48 0)"/><path class="cls-6" d="M654.28,225.83a1.48,1.48,0,1,0,0-3,1.48,1.48,0,1,0,0,3" transform="translate(-6.48 0)"/><path class="cls-6" d="M654.26,225.83a1.48,1.48,0,1,0,0-3,1.48,1.48,0,1,0,0,3" transform="translate(-6.48 0)"/><path class="cls-6" d="M654.3,225.8a1.48,1.48,0,1,0,0-3,1.48,1.48,0,1,0,0,3" transform="translate(-6.48 0)"/><path class="cls-6" d="M651,225.45a1.48,1.48,0,1,0,0-2.95,1.48,1.48,0,1,0,0,2.95" transform="translate(-6.48 0)"/><path class="cls-6" d="M651.09,225.49a1.48,1.48,0,1,0,0-3,1.48,1.48,0,1,0,0,3" transform="translate(-6.48 0)"/><path class="cls-6" d="M651.16,225.5a1.48,1.48,0,1,0,0-2.95,1.48,1.48,0,1,0,0,2.95" transform="translate(-6.48 0)"/><path class="cls-6" d="M651.17,225.5a1.48,1.48,0,1,0,0-2.95,1.48,1.48,0,1,0,0,2.95" transform="translate(-6.48 0)"/><path class="cls-6" d="M651.17,225.51a1.48,1.48,0,1,0,0-2.95,1.48,1.48,0,1,0,0,2.95" transform="translate(-6.48 0)"/><path class="cls-6" d="M651.18,225.51a1.48,1.48,0,1,0,0-2.95,1.48,1.48,0,1,0,0,2.95" transform="translate(-6.48 0)"/><path class="cls-6" d="M651.2,225.51a1.48,1.48,0,1,0,0-2.95,1.48,1.48,0,1,0,0,2.95" transform="translate(-6.48 0)"/><path class="cls-6" d="M651.44,225.84a1.48,1.48,0,1,0,0-3,1.48,1.48,0,1,0,0,3" transform="translate(-6.48 0)"/><path class="cls-6" d="M651.34,225.71a1.48,1.48,0,1,0,0-3,1.48,1.48,0,1,0,0,3" transform="translate(-6.48 0)"/><path class="cls-6" d="M673.63,227.48a3.65,3.65,0,0,0-.12-.66,3.7,3.7,0,0,0-.26-.62,3.54,3.54,0,0,0-.57-.78,1.21,1.21,0,0,0-.52-.31,1.54,1.54,0,0,0-1.24,0,1.21,1.21,0,0,0-.52.31l-.25.29a1.36,1.36,0,0,0-.22.75l.06.39a1.36,1.36,0,0,0,.41.65l0,0c-.09-.09-.17-.19-.26-.29a1.86,1.86,0,0,1,.29.44l-.16-.35a2.21,2.21,0,0,1,.15.5l-.06-.39v0a1.1,1.1,0,0,0,.14.57,1.21,1.21,0,0,0,.34.48,1.26,1.26,0,0,0,.51.3,1.35,1.35,0,0,0,.63.13l.42-.05a1.63,1.63,0,0,0,.71-.38l.26-.3a1.43,1.43,0,0,0,.22-.75" transform="translate(-6.48 0)"/><path class="cls-6" d="M670.57,226.66a1.48,1.48,0,1,0,0-2.95,1.48,1.48,0,1,0,0,2.95" transform="translate(-6.48 0)"/><path class="cls-6" d="M670.58,226.59a1.48,1.48,0,1,0,0-3,1.48,1.48,0,1,0,0,3" transform="translate(-6.48 0)"/><path class="cls-6" d="M670.62,226.58a1.48,1.48,0,1,0,0-3,1.48,1.48,0,1,0,0,3" transform="translate(-6.48 0)"/><path class="cls-6" d="M670.65,226.58a1.48,1.48,0,1,0,0-3,1.48,1.48,0,1,0,0,3" transform="translate(-6.48 0)"/><path class="cls-6" d="M672.34,227.68a1.48,1.48,0,1,0,0-3,1.48,1.48,0,1,0,0,3" transform="translate(-6.48 0)"/><path class="cls-6" d="M674,226.5a1.48,1.48,0,1,0,0-2.95,1.48,1.48,0,1,0,0,2.95" transform="translate(-6.48 0)"/><path class="cls-6" d="M674,226.51a1.48,1.48,0,1,0,0-2.95,1.48,1.48,0,1,0,0,2.95" transform="translate(-6.48 0)"/><path class="cls-6" d="M673.94,226.52a1.48,1.48,0,1,0,0-3,1.48,1.48,0,1,0,0,3" transform="translate(-6.48 0)"/><path class="cls-6" d="M673.89,226.63a1.48,1.48,0,1,0,0-2.95,1.48,1.48,0,1,0,0,2.95" transform="translate(-6.48 0)"/><path class="cls-6" d="M672.21,223.4a.15.15,0,1,0,0-.3.15.15,0,1,0,0,.3" transform="translate(-6.48 0)"/><path class="cls-6" d="M672.23,223.44a.15.15,0,1,0,0-.29.15.15,0,1,0,0,.29" transform="translate(-6.48 0)"/><path class="cls-6" d="M672.21,223.4v0h0l0,0h0a.07.07,0,0,0,0,.08.07.07,0,0,0,.08,0s0,0,0,0a0,0,0,0,0,0,0s0,0,0,0,0,0,0,0h.07s0,0,0,0v0a0,0,0,0,0,0,0v0h-.09a0,0,0,0,0,0,0h.11v0h0v0l0,0h0v0l0,0h0v0h0l0,0s0,0,0,0v0a0,0,0,0,0,0,0" transform="translate(-6.48 0)"/><path class="cls-6" d="M672.27,223.44v0s0,0,0,0v0s0,0,0,0" transform="translate(-6.48 0)"/><path class="cls-6" d="M672.21,223.46a0,0,0,1,0,0,0,0,0,0,0,0,0,0" transform="translate(-6.48 0)"/><path class="cls-6" d="M672.29,223.46v0a0,0,0,0,0,0,0h0s0,0,0,0h0s0,0-.07,0,0,0,0,0h.13v0h0a0,0,0,0,0,0,0" transform="translate(-6.48 0)"/><path class="cls-6" d="M672.19,223.51s0,0,0,0a0,0,0,0,0,0,0" transform="translate(-6.48 0)"/><path class="cls-6" d="M672.21,223.51a.16.16,0,0,1,.1,0v0h-.11s0,0,0,0a.05.05,0,0,0,0,0h.07s0,0,0,0a.23.23,0,0,0-.11,0l0,0h0" transform="translate(-6.48 0)"/><path class="cls-6" d="M672.2,223.52a0,0,0,1,0,0,0,0,0,0,0,0,0,0" transform="translate(-6.48 0)"/><path class="cls-6" d="M672.31,223.53a0,0,0,0,0,0,0,0,0,0,1,0,0,0" transform="translate(-6.48 0)"/><path class="cls-6" d="M672.31,223.53a0,0,0,0,0,0,0,0,0,0,1,0,0,0" transform="translate(-6.48 0)"/><path class="cls-6" d="M672.31,223.53a0,0,0,0,0,0,0,0,0,0,1,0,0,0" transform="translate(-6.48 0)"/><path class="cls-6" d="M672.29,223.5h0a0,0,0,1,0,0,0h0a0,0,0,0,0,0,0" transform="translate(-6.48 0)"/><path class="cls-6" d="M678.6,220.94H679a0,0,0,0,0,0,0h-.38s0,0,0,0" transform="translate(-6.48 0)"/><path class="cls-6" d="M678.6,221H679a0,0,0,1,0,0,0h-.39a0,0,0,0,0,0,0" transform="translate(-6.48 0)"/><path class="cls-6" d="M678.94,221h.16a0,0,0,1,0,0,0h-.16a0,0,0,0,0,0,0" transform="translate(-6.48 0)"/><path class="cls-6" d="M678.94,220.93h-.15a0,0,0,0,0,0,0v0h.15v0h0" transform="translate(-6.48 0)"/><path class="cls-6" d="M679.11,220.94H679a0,0,0,0,0,0,0h.13a0,0,0,0,0,0,0h0" transform="translate(-6.48 0)"/><path class="cls-6" d="M689.11,227l.6,1.38a.32.32,0,0,0,.39.2.3.3,0,0,0,.23-.36,2.47,2.47,0,0,0-1-1.54.37.37,0,0,0-.39-.05.3.3,0,0,0-.15.34l.75,2,.59-.23-.69-1.41a.34.34,0,0,0-.44-.11.3.3,0,0,0-.11.41c.22.47.45.94.68,1.41a.34.34,0,0,0,.4.12.3.3,0,0,0,.19-.35l-.75-2-.54.29a1.93,1.93,0,0,1,.83,1.28l.62-.16-.6-1.37a.32.32,0,0,0-.39-.21.29.29,0,0,0-.23.36" transform="translate(-6.48 0)"/><path class="cls-6" d="M688.64,227.79l.88,2.37a.32.32,0,0,0,.39.2.3.3,0,0,0,.23-.36c-.29-.79-.59-1.58-.88-2.36a.35.35,0,0,0-.4-.21.29.29,0,0,0-.22.36" transform="translate(-6.48 0)"/><path class="cls-6" d="M688.84,228.43c.07.17.14.35.2.52a.38.38,0,0,0,.15.18.36.36,0,0,0,.25,0,.34.34,0,0,0,.19-.14.3.3,0,0,0,0-.23l-.21-.52a.33.33,0,0,0-.15-.18.4.4,0,0,0-.24,0,.37.37,0,0,0-.2.14.27.27,0,0,0,0,.23" transform="translate(-6.48 0)"/><path class="cls-6" d="M689.8,230.38a.3.3,0,1,0,0-.59.3.3,0,1,0,0,.59" transform="translate(-6.48 0)"/><path class="cls-6" d="M690.07,230.27l.06-.32a.24.24,0,0,0,0-.12.23.23,0,0,0,0-.11.24.24,0,0,0-.09-.08.19.19,0,0,0-.11,0h-.08a.35.35,0,0,0-.17,0l-.06,0a.26.26,0,0,0-.08.13l-.06.32a.25.25,0,0,0,0,.12.36.36,0,0,0,0,.11.18.18,0,0,0,.09.08.21.21,0,0,0,.1.06h.09a.42.42,0,0,0,.16,0l.07,0a.26.26,0,0,0,.08-.13" transform="translate(-6.48 0)"/><path class="cls-6" d="M690.05,230c0-.09,0-.18,0-.27a.2.2,0,0,0,0-.11.17.17,0,0,0-.07-.1.21.21,0,0,0-.1-.06.25.25,0,0,0-.12,0h-.09a.37.37,0,0,0-.14.07l0,.06a.3.3,0,0,0-.05.15,2.44,2.44,0,0,1,0,.27.2.2,0,0,0,0,.11.23.23,0,0,0,.07.1.21.21,0,0,0,.1.06.19.19,0,0,0,.13,0h.08a.23.23,0,0,0,.14-.07l0-.06a.3.3,0,0,0,0-.15" transform="translate(-6.48 0)"/><path class="cls-6" d="M689.77,230.6a.3.3,0,1,0,0-.59.3.3,0,1,0,0,.59" transform="translate(-6.48 0)"/><path class="cls-6" d="M689.15,228.72a.3.3,0,1,0,0-.59.3.3,0,1,0,0,.59" transform="translate(-6.48 0)"/></g><g class="cls-2"><path class="cls-7" d="M612.65,171.49a4.23,4.23,0,0,0-.7,5,5.55,5.55,0,0,0,3.78,2.66c3.09.72,6.57.67,9.13-1.4a5.78,5.78,0,0,0,2.1-4,6.06,6.06,0,0,0-1.71-4.52c-2.06-2.26-5.66-2.86-8.54-2.17-3.52.85-6.21,4.32-5.23,8a2.52,2.52,0,0,0,2.41,1.83l7.45-.49a2.51,2.51,0,0,0,2-1,2.31,2.31,0,0,0,.45-2.17,5.64,5.64,0,0,0-7.88-3.1,2.51,2.51,0,0,0-.9,3.42,2.56,2.56,0,0,0,3.42.89c-.71.34-.17.1,0,0,.4-.12-.67,0,0,0s-.41-.13,0,0a4.32,4.32,0,0,0,.45.12c.19.07.09,0-.28-.12l.23.12.23.14c-.33-.26-.4-.31-.2-.14l.19.18c.17.19.12.13-.15-.2,0,.14.38.8,0,0,.8-1.05,1.61-2.1,2.41-3.16l-7.45.49,2.41,1.84a1.84,1.84,0,0,0-.07-.3c.19.2,0,.54,0,.22v-.3c0-.32.13,0,0,.22.09-.1.11-.45.16-.58s.16-.07-.08.17a1.73,1.73,0,0,0,.15-.27l.16-.26c.22-.35,0,.12-.11.14.15-.06.32-.33.44-.44.33-.32-.12.12-.13.1s.3-.19.28-.18l.29-.16c.4-.22-.36.12-.07,0a6.93,6.93,0,0,1,1.22-.32s-.57.05-.17,0l.34,0a6.43,6.43,0,0,1,.76,0l.34,0c.34,0-.5-.1-.16,0s.44.09.66.15.55.11.57.18-.46-.22-.13-.05l.45.24a2.39,2.39,0,0,0,.21.13c.29.16-.35-.31-.11-.09s.32.31.47.46-.26-.41-.1-.13c.06.09.12.18.17.27a.72.72,0,0,0,.12.21c-.13-.33-.17-.41-.1-.23a2,2,0,0,1,.07.23,2.63,2.63,0,0,0,.08.3c0-.06,0-.62,0-.2,0,.06,0,.28,0,.31s.12-.53,0-.28a1.63,1.63,0,0,0-.07.3c-.06.31.24-.46.09-.19a2.2,2.2,0,0,1-.15.26c-.2.35-.06,0,.1-.08a5.66,5.66,0,0,0-.42.43c-.26.25,0-.14.14-.1a1.56,1.56,0,0,0-.25.17l-.48.26c-.28.15.48-.17.17-.08-.13,0-.26.1-.4.13a2.4,2.4,0,0,1-.73.16c.48,0,.29,0,.1,0l-.38,0a12.45,12.45,0,0,1-1.61-.06l-.28,0-.29,0,.25,0s-.67-.12-.74-.14a5.15,5.15,0,0,0-.71-.21c.08,0,.5.28.15.06l-.14-.08c-.18-.12-.18-.11,0,0l.12.1a1.29,1.29,0,0,1-.17-.16c-.16-.09.28.5.1.14a1.57,1.57,0,0,0-.13-.23c.1.08.21.57.1.15s.06.59,0,.27,0,.07,0,.22c0-.18.18-.35-.12.25.19-.38-.41.42-.06.11a2.51,2.51,0,0,0,0-3.53,2.55,2.55,0,0,0-3.54,0" transform="translate(-6.48 0)"/></g><text class="cls-9" transform="translate(562.33 38.58) scale(1.03 1)"><tspan class="cls-10">Up</tspan><tspan class="cls-13" x="27.82" y="0">l</tspan><tspan class="cls-10" x="33.45" y="0">oa</tspan><tspan class="cls-13" x="57.39" y="0">d </tspan><tspan class="cls-23" x="75.96" y="0">p</tspan><tspan class="cls-17" x="89.09" y="0">h</tspan><tspan class="cls-10" x="101.2" y="0">o</tspan><tspan class="cls-13" x="113.85" y="0">t</tspan><tspan class="cls-10" x="120.86" y="0">os</tspan><tspan x="142.85" y="0"> </tspan></text><text class="cls-9" transform="translate(568.95 62.56) scale(1.03 1)"><tspan class="cls-13">t</tspan><tspan class="cls-10" x="7.01" y="0">o</tspan><tspan class="cls-17" x="19.66" y="0" xml:space="preserve"> y</tspan><tspan class="cls-10" x="35.61" y="0">ou</tspan><tspan class="cls-13" x="60.35" y="0">r</tspan><tspan class="cls-24" x="68.03" y="0" xml:space="preserve"> V</tspan><tspan class="cls-23" x="86.05" y="0">isua</tspan><tspan class="cls-17" x="124.4" y="0">l</tspan><tspan x="130.04" y="0"> </tspan></text><text class="cls-9" transform="translate(579.35 86.54) scale(1.03 1)"><tspan class="cls-25">S</tspan><tspan class="cls-17" x="11.71" y="0">t</tspan><tspan class="cls-10" x="18.72" y="0">o</tspan><tspan class="cls-13" x="31.37" y="0">ryl</tspan><tspan class="cls-10" x="55.2" y="0">in</tspan><tspan class="cls-13" x="72.92" y="0">e t</tspan><tspan class="cls-10" x="97.26" y="0">o</tspan><tspan x="109.91" y="0"> </tspan></text><g class="cls-2"><text class="cls-9" transform="translate(582.99 110.52) scale(1.03 1)"><tspan class="cls-10">s</tspan><tspan class="cls-26" x="9.33" y="0">e</tspan><tspan class="cls-23" x="21.1" y="0">a</tspan><tspan class="cls-17" x="32.39" y="0">mle</tspan><tspan class="cls-10" x="68.09" y="0">ss</tspan><tspan class="cls-13" x="86.75" y="0" xml:space="preserve">ly      </tspan><tspan x="135.51" y="0"> </tspan></text></g><text class="cls-9" transform="translate(581.61 134.51) scale(1.03 1)"><tspan class="cls-20">r</tspan><tspan class="cls-17" x="7.33" y="0">ev</tspan><tspan class="cls-10" x="29.74" y="0">isi</tspan><tspan class="cls-13" x="50.34" y="0">t tr</tspan><tspan class="cls-10" x="77.48" y="0">ip</tspan><tspan x="96.24" y="0">s</tspan></text><g class="cls-2"><path class="cls-3" d="M450.63,43.28c5.14-15.26,21.13-25,36.75-25.81,18.21-.95,35.48,8.83,47.49,21.93,11.14,12.16,18,27.77,20.63,44a87,87,0,0,1-5.75,48c-5.68,13-18.52,32.6-35.26,25.67a13.48,13.48,0,0,1-7.15-6.42,9.55,9.55,0,0,1-.93-4.2,10.11,10.11,0,0,1,.78-3.7c2.55-5.52,9.08-8.71,15-8.63a13.67,13.67,0,0,1,8.44,3,20.56,20.56,0,0,1,6.21,8.46c2.89,7.08,2.66,15.17.25,22.35-3.08,9.17-9.08,17.07-14.93,24.64-6,7.78-12.21,15.6-16.1,24.73-3.6,8.43-5.2,17.92-2.06,26.75,2.69,7.55,8.21,14.37,16,17,7.92,2.72,17-.08,24.09-3.9,7.57-4.1,14.06-9.95,20.44-15.65,3-2.67,6-5.36,9.12-7.88a2.5,2.5,0,0,0,0-3.53,2.55,2.55,0,0,0-3.53,0c-6.78,5.44-12.9,11.66-19.8,17-6.58,5.07-14.24,9.62-22.75,10-7.88.36-14.11-4.84-17.54-11.65-4-8.07-3-17.09.24-25.25,7.61-19.07,25.69-31.92,31.94-51.75a36.75,36.75,0,0,0-.57-24.36c-3-7.46-9.1-13.85-17.38-14.87a22.08,22.08,0,0,0-19.37,7.81,15,15,0,0,0-3.47,9.92,15.76,15.76,0,0,0,4.86,10.59c5.85,5.65,15.07,7.25,22.62,4.51,9-3.27,15.53-10.84,20.35-18.84,9-15,13-32.79,12.22-50.21a92.38,92.38,0,0,0-16.31-48.74c-10.82-15.32-27.27-27.82-46.06-31a50.65,50.65,0,0,0-26.58,2.33,47.08,47.08,0,0,0-20.83,15.23A38.52,38.52,0,0,0,445.81,42c-1,3.06,3.8,4.37,4.82,1.33" transform="translate(-6.48 0)"/><path class="cls-3" d="M553.52,215.93c2,4.53,7.87,5.54,12.26,5.64a48.52,48.52,0,0,0,16.54-2.76,27.39,27.39,0,0,0,7-3.3l-3.67-2.83a55.43,55.43,0,0,0-3.63,18.58c-.21,6,.33,12.92,3.88,18a2.56,2.56,0,0,0,3.42.9,2.53,2.53,0,0,0,.9-3.42c-3.08-4.41-3.41-10.45-3.19-15.83A51.23,51.23,0,0,1,590.5,214c.79-2-2-4-3.67-2.82a16.81,16.81,0,0,1-2.28,1.34c-.44.22-.89.43-1.34.63.36-.16-.19.08-.29.12l-.83.32a49.58,49.58,0,0,1-7.19,2.05,40.16,40.16,0,0,1-7.21.9,31.07,31.07,0,0,1-3.61-.07l-.76-.08c-.3,0,0,0,0,0l-.36-.06c-.53-.1-1.07-.2-1.6-.35-.28-.07-.56-.16-.84-.26s-.73-.29-.29-.09a13.79,13.79,0,0,1-1.3-.72c-.47-.29.14.2-.23-.2l-.44-.45c0-.05-.22-.3,0,0s-.1-.18-.11-.2a6.59,6.59,0,0,1-.33-.65,2.52,2.52,0,0,0-3.42-.89,2.56,2.56,0,0,0-.9,3.42" transform="translate(-6.48 0)"/></g></g></g></g></g></svg>