<svg xmlns="http://www.w3.org/2000/svg" xmlns:xlink="http://www.w3.org/1999/xlink" viewBox="0 0 615.53 203.81"><defs><style>.cls-1{fill:none;}.cls-2{clip-path:url(#clip-path);}.cls-3,.cls-6{fill:#e98d69;}.cls-4{font-size:74px;fill:#231f20;}.cls-4,.cls-6{font-family:CambayDevanagari-Bold, Cambay Devanagari;font-weight:700;}.cls-5{letter-spacing:0.03em;}.cls-6{font-size:86px;}.cls-7{letter-spacing:0.03em;}.cls-8{letter-spacing:0.03em;}.cls-9{letter-spacing:0.03em;}.cls-10{fill:#065fab;}</style><clipPath id="clip-path" transform="translate(-0.42 0)"><rect class="cls-1" width="661" height="204.65"/></clipPath></defs><g id="Layer_2" data-name="Layer 2"><g id="Layer_1-2" data-name="Layer 1"><g id="Main_Page_Center_Graphic" data-name="Main Page Center Graphic"><g class="cls-2"><g class="cls-2"><path class="cls-3" d="M101.47,136.66a58.64,58.64,0,0,0-35.95-53c-9.64-4-20-5.48-30-8-9.1-2.31-18.54-5.47-23.9-13.72-.31,2.42-.62,4.85-.94,7.27,6-6.3,14.93-7.65,23.19-8.64,9.72-1.18,19.5-1.91,29.28-2.28a450.7,450.7,0,0,1,59.36,1.9C161.92,63.91,200.79,72,239.41,80.53c76.73,17.06,154.74,37.59,234,33,36.68-2.11,95.9-7.9,100.14-55.11.69-7.69-11.31-7.64-12,0-1.66,18.44-18.89,30.09-35.09,35.15-18.05,5.64-37.68,7.24-56.49,8.14-38.55,1.86-77.11-2.25-115-8.9C277.79,79.32,202.39,56,124.2,48.36a449.85,449.85,0,0,0-64.52-1.92,320.14,320.14,0,0,0-32.13,3C18.14,50.78,8.88,53.66,2.17,60.73A6.11,6.11,0,0,0,1.23,68c11.35,17.48,32.57,19,51,23.89,10.23,2.75,19.18,7.3,26.17,15.44a46.27,46.27,0,0,1,11.11,29.33c.13,7.72,12.13,7.74,12,0" transform="translate(-0.42 0)"/><text class="cls-4" transform="translate(44.63 57.35)"><tspan class="cls-5">Travel Photograph</tspan><tspan x="538.71" y="0">y</tspan></text><text class="cls-6" transform="translate(139.51 160.55)"><tspan class="cls-7">Rei</tspan><tspan class="cls-8" x="103.97" y="0">m</tspan><tspan class="cls-9" x="163.91" y="0">agine</tspan><tspan x="341.76" y="0">d</tspan></text><path class="cls-10" d="M232.84,122.82c7.72,0,7.73-12,0-12s-7.73,12,0,12" transform="translate(-0.42 0)"/><path class="cls-10" d="M391.58,122.82c7.73,0,7.74-12,0-12s-7.73,12,0,12" transform="translate(-0.42 0)"/></g></g></g></g></g></svg>