<svg xmlns="http://www.w3.org/2000/svg" viewBox="0 0 58.45 102.94"><defs><style>.cls-1{fill:#231f20;}</style></defs><g id="Layer_2" data-name="Layer 2"><g id="Hand-drawn_Icon_Set" data-name="Hand-drawn Icon Set"><path id="Notebook" class="cls-1" d="M58.11,25.89c0-8.27,3-23.73-8.66-25.19C42.34-.2,34.87.19,27.71.09Q15.85-.08,4,.05a2.4,2.4,0,0,0-2.4,2.7A2.37,2.37,0,0,0,.8,4.49Q-.31,42.32.12,80.15a2.37,2.37,0,0,0,2.27,2.4l20.05,13.6c4.78,3.25,10.1,7.58,16.29,6.67,5.06-.75,7.75-4.28,8.31-9,3.73-.1,7.54-1.07,9.56-4.52,2.62-4.48,1.19-11.92,1.25-16.85Q58.11,49.18,58.11,25.89ZM44.58,22.25l-.15-.35c-2.34-5-8.32-7-13.35-8.94,3.24.45,7.08.75,9.7,2C44.09,16.53,44.59,19.24,44.58,22.25Zm-6.86,75.6C32.51,99,25,91.89,21.07,89.2l-16-10.83Q4.74,42.8,5.73,7.25L20.91,14l9,4c2.52,1.11,5.94,2,8.1,3.74C42.65,25.44,41,35.1,41.13,40.38q.19,9.75.38,19.49l.39,19.49q.1,4.88.2,9.75c0,.54,0,1.09,0,1.63a2.43,2.43,0,0,0,0,.66C42,94.38,41.36,97.06,37.72,97.85Zm15.39-72q0,16.85-.14,33.69Q52.91,68,52.8,76.43c0,2.61.15,5.33-.1,7.92a4.38,4.38,0,0,1-3.82,4.28,2.77,2.77,0,0,0,0-.3q.42-29.46.54-58.92c0-5.69,1.93-15-4.29-18.35C42.1,9.44,37.65,9.25,34.28,8.58L18.63,5.48a2.06,2.06,0,0,0-.42,0,3.4,3.4,0,0,0-.54-.27L17.24,5q10.17,0,20.36.26c3,.07,5.93.14,8.89.25,3.21.11,5.56.62,6.34,4.05C54,14.61,53.11,20.75,53.11,25.89Z"/></g></g></svg>