<svg xmlns="http://www.w3.org/2000/svg" viewBox="0 0 60.48 79.02"><defs><style>.cls-1{fill:#231f20;}</style></defs><g id="Layer_2" data-name="Layer 2"><g id="Hand-drawn_Icon_Set" data-name="Hand-drawn Icon Set"><path id="Pencil" class="cls-1" d="M59.42,56.47c-.07-.2,0-.39-.15-.59C47.57,36.92,35.8,18,21.12,1.14A2.18,2.18,0,0,0,19.88.36a2,2,0,0,0-2-.17C11.45,2.79,3.75,6.46.32,12.85a2.33,2.33,0,0,0,.13,2.56A2.16,2.16,0,0,0,.8,17.2q16.91,25.37,35,49.93a2,2,0,0,0,.31.34,2.27,2.27,0,0,0,1.06,1.12c6.46,3.5,12.78,6.79,19.45,9.87a2.36,2.36,0,0,0,3.91-1.85v-18A2.09,2.09,0,0,0,59.42,56.47ZM42.05,65.55l1.6-2.73L47.1,63a2.44,2.44,0,0,0,2.84-1.11c.38-.83.72-1.67,1-2.52,1.56.28,2.87.56,4.42.84.11,0,.09,0,.09,0V64.6s0,0-.1.07a9.82,9.82,0,0,0-5.91,4.78C46.94,68.19,44.55,66.88,42.05,65.55Zm-37-50.92c2.79-4.4,8.42-7.24,13.19-9.22q3,3.51,5.92,7.16a41.8,41.8,0,0,0-14,9.57c-1.68-2.48-3.37-5-5-7.46ZM13,26.38a36.65,36.65,0,0,1,14.13-9.66,1.11,1.11,0,0,0,.19-.09c9.21,12.12,17.37,25,25.38,38l-2.25-.41a2.87,2.87,0,0,0-2.1.41,2.43,2.43,0,0,0-1.65,1.68c-.15.56-.33,1.11-.52,1.66l-3.73-.15a2.23,2.23,0,0,0-1.38.42,2.42,2.42,0,0,0-1.1,1l-1.73,2.94Q25.36,44.47,13,26.38Z"/></g></g></svg>