<svg xmlns="http://www.w3.org/2000/svg" viewBox="0 0 201.26 166.82"><defs><style>.cls-1{fill:#231f20;}.cls-2{fill:#fff;}</style></defs><g id="Layer_2" data-name="Layer 2"><g id="Layer_1-2" data-name="Layer 1"><path class="cls-1" d="M40.12,146.65a.5.5,0,0,0,0-1,.5.5,0,0,0,0,1Z"/><path class="cls-2" d="M40.07,146.59a.5.5,0,0,0,0-1,.5.5,0,0,0,0,1Z"/><path class="cls-2" d="M40.06,147.23l-.23.63c-.17.49.5.82.84.49L43,146c.4-.39-.12-1.1-.6-.79A3.33,3.33,0,0,0,41,148.69a.5.5,0,0,0,.84.22,2.45,2.45,0,0,0,.19-3,.51.51,0,0,0-.94.26l-.11.87h1v-1.81l-.85.35,1.07,1.36c.33.42.94-.05.84-.49l-1.29-5.66-1,.27,1.17,4.31.91-.39-.24-.53a.51.51,0,0,0-.86,0l-.93,2h.86l-1.41-2a.51.51,0,0,0-.94.25l-.23,1.85,1-.13-.32-.84a.5.5,0,0,0-1,.27L40,151.54l1-.27a24.22,24.22,0,0,0-1.55-3.49l-2.13-3.48a.5.5,0,0,0-.93.26c0,1.08,0,2.17,0,3.26a.79.79,0,0,0,.61.82,2,2,0,0,0,1.09.11,2,2,0,0,0,1.08-3.4.51.51,0,0,0-.86.35L38,150.32c0,.65,1,.64,1,0l.28-4.62-.85.36a1,1,0,0,1-1.32,1.53l.25.43,0-3.46-.93.25,2,3.3A23.1,23.1,0,0,1,40,151.54a.5.5,0,0,0,1-.27l-1.18-5.73-1,.27.32.84a.5.5,0,0,0,1-.14l.23-1.85-.93.26,1.42,2a.5.5,0,0,0,.86,0l.93-2h-.86l.24.53c.24.52,1.06.15.92-.39l-1.17-4.31a.5.5,0,0,0-1,.27L42,146.72l.84-.49-1.07-1.36c-.28-.35-.85,0-.86.36V147c0,.66.92.61,1,0l.11-.87-.93.25a1.43,1.43,0,0,1,0,1.79l.84.22a2.28,2.28,0,0,1,1-2.35l-.6-.79L40,147.64l.84.49.22-.63c.22-.61-.75-.87-1-.27Z"/><path class="cls-2" d="M14.24,134.4a17.21,17.21,0,0,1,12.12,12l.61-.62-.64-.16c-.47-.12-.88.49-.49.83a1.25,1.25,0,0,1,.46,1,.5.5,0,0,0,1,0,2.19,2.19,0,0,0-.75-1.73l-.49.83.65.17a.51.51,0,0,0,.61-.62,18.18,18.18,0,0,0-12.81-12.72.5.5,0,0,0-.27,1Z"/><path class="cls-1" d="M7.7,110.36a.5.5,0,0,0,0-1,.5.5,0,0,0,0,1Z"/><path class="cls-2" d="M8.43,114v-8a.5.5,0,0,0-1,0v8a.5.5,0,0,0,1,0Z"/><path class="cls-2" d="M15.62,104.94c0,1.71-1.95,2.29-3.34,2.39-1.76.12-3.48-.47-5.24-.35-1.6.11-3.32.85-3.72,2.56a3.34,3.34,0,0,0,2.18,3.85,3.27,3.27,0,0,0,4-3.25.51.51,0,0,0-.5-.5l-4.23-.53c-.63-.08-.63.93,0,1l4.23.53-.5-.5c.08,1.67-2,3.1-3.39,1.92a2.21,2.21,0,0,1,.27-3.63c1.33-.75,3.12-.48,4.55-.27a8.82,8.82,0,0,0,4.18-.17,3.24,3.24,0,0,0,2.53-3c0-.64-1-.64-1,0Z"/><path class="cls-2" d="M.48,115.73H26a.5.5,0,0,0,0-1H.48a.5.5,0,0,0,0,1Z"/><path class="cls-2" d="M56.37,112.69h7.89a.5.5,0,0,0,0-1H56.37a.5.5,0,0,0,0,1Z"/><path class="cls-1" d="M28.12,159.89q-4.12-30.63-6-61.5c-1.23-20.64-1.69-41.34-1.23-62Q21.28,19.17,22.54,2c.05-.64-.95-.63-1,0C20,22.57,19.49,43.22,19.82,63.86s1.5,41.5,3.43,62.18q1.61,17.08,3.9,34.11c.09.64,1.05.37,1-.26Z"/><path class="cls-1" d="M22,2.49A597,597,0,0,0,88,7.63a595.91,595.91,0,0,0,66.14-2.24Q172.49,3.76,190.68,1c.63-.09.36-1.06-.27-1a593.32,593.32,0,0,1-66,6.3A592.83,592.83,0,0,1,59,5.28Q40.46,4,22,1.49c-.63-.08-.63.92,0,1Z"/><path class="cls-1" d="M190.06.63a503.84,503.84,0,0,1,8.28,60.43c1.62,20.53,2.18,41.15,1.81,61.74q-.3,16.89-1.46,33.76c-.05.64.95.64,1,0q2.09-30.43,1.39-61a590.19,590.19,0,0,0-4.59-62C195.05,22.44,193.25,11.36,191,.36c-.12-.63-1.09-.36-1,.27Z"/><path class="cls-1" d="M199.19,156.06l-65.07,3.78-66.75,3.89-35.91,2.09c-.64,0-.64,1,0,1L96.53,163l66.75-3.88,35.91-2.09c.64,0,.64-1,0-1Z"/><path class="cls-1" d="M31.6,102.34A67.66,67.66,0,0,0,64.34,87.88,66.55,66.55,0,0,0,85,58.13,66.89,66.89,0,0,0,88.71,37.3a.5.5,0,0,0-1,0A66.67,66.67,0,0,1,77.05,72.22,65.61,65.61,0,0,1,50.43,95.54a66.27,66.27,0,0,1-19.1,5.84c-.63.09-.36,1.05.27,1Z"/><path class="cls-1" d="M88.31,40.81C94.66,49,99.78,58,106.13,66.09c.4.5,1.1-.21.71-.71C100.49,57.24,95.36,48.24,89,40.1c-.39-.51-1.09.21-.7.71Z"/><path class="cls-1" d="M107,65.6C103.67,57,109.43,48.26,114.9,42c6.14-7.06,12.55-13.89,18.83-20.82l-.83-.22C137.17,44.26,153.66,64.6,175,74.62a70.3,70.3,0,0,0,18.83,5.81c.63.1.9-.86.27-1-23.07-3.65-43.45-19.29-53.92-40a69.52,69.52,0,0,1-6.33-18.77.5.5,0,0,0-.83-.22c-6.67,7.35-13.6,14.53-20,22.14-5.25,6.28-10.25,14.91-7.07,23.27.23.6,1.2.34,1-.26Z"/><path class="cls-1" d="M46.88,93.85c-8-6.75-10.72-18.32-7.25-28.09,3.58-10.07,12.72-17.35,23-19.53a38.31,38.31,0,0,1,20.19,1.39c.61.2.87-.76.27-1C71.75,42.78,58.57,44,48.92,51.48,40.51,58,35.68,68.58,37.55,79.24a26,26,0,0,0,8.62,15.32c.49.41,1.2-.3.71-.71Z"/><path class="cls-1" d="M179.36,121.75c-.26-7.61-1.78-17.24-8.52-22-8.28-5.78-18.08.61-25.46,4.75-20.19,11.33-43.64,7-65.66,9.61-9.74,1.16-19.64,3.61-27.87,9.16-3.8,2.56-7.62,5.73-9.39,10.07-1.64,4-.57,8.41,3.85,9.85,2.32.76,4.84.63,7.25.62l9.72,0L83,143.7c12.91-.07,25.82-.1,38.74-.25s25.75-.42,38.61-1.08c5-.25,10.88-.46,15.14-3.53,3.12-2.25,3.35-6.89,3.54-10.37.13-2.24.16-4.49.36-6.72.06-.64-.94-.64-1,0-.39,4.25,0,8.77-1.26,12.88a6.81,6.81,0,0,1-3.82,4.32,23.48,23.48,0,0,1-8,2.08c-5.73.61-11.56.67-17.31.86q-9.16.31-18.32.45c-24.36.4-48.72.37-73.08.5-4.17,0-12.1,1.23-13.67-4.12-1.37-4.67,2.84-9.25,6.08-12,7.37-6.25,16.81-9.37,26.21-10.94,20.26-3.39,41.56.66,61.28-6.13,4.91-1.68,9.3-4.23,13.8-6.77,4.3-2.41,9-4.7,14.09-4.34,8.47.61,12.13,9.16,13.37,16.47a50.45,50.45,0,0,1,.65,6.72c0,.64,1,.65,1,0Z"/></g></g></svg>