<svg xmlns="http://www.w3.org/2000/svg" viewBox="0 0 151.63 220.87"><defs><style>.cls-1,.cls-3{fill:#fff;}.cls-1{stroke:#231f20;stroke-miterlimit:10;}.cls-2{fill:#231f20;}</style></defs><g id="Layer_2" data-name="Layer 2"><g id="Layer_1-2" data-name="Layer 1"><path class="cls-1" d="M92.36,100.25a5.84,5.84,0,0,1-1.25,3.51,5.22,5.22,0,0,1-.65-2.49,5.58,5.58,0,0,1,1.31-3.47A5.43,5.43,0,0,1,92.36,100.25Z"/><path class="cls-1" d="M91.77,97.8a5.43,5.43,0,0,1,.59,2.45,5.84,5.84,0,0,1-1.25,3.51,5.22,5.22,0,0,1-.65-2.49A5.58,5.58,0,0,1,91.77,97.8Z"/><path class="cls-1" d="M122.16,101.27a5.12,5.12,0,0,1-.09,1,4.65,4.65,0,0,1-.16-2.06,2.74,2.74,0,0,1,0-.28A5,5,0,0,1,122.16,101.27Z"/><path class="cls-2" d="M57.34,98.16c-.87-.41-.51-2.9-.51-3.64V83.6c0-3,0-6.06,0-9.09V20.22a32.31,32.31,0,0,0-.36-6.52A17.19,17.19,0,0,0,26,6.72a17.7,17.7,0,0,0-3.56,10.91v87.69c0,1.53.11,3.11,0,4.64a17.68,17.68,0,0,1-1.3,3.92,66,66,0,0,0-3.07,25.17c.05.64,1.05.64,1,0a65.7,65.7,0,0,1,3.32-25.77,11.64,11.64,0,0,0,1.05-3.3c0-.55,0-1.09,0-1.63V20c0-.94,0-1.89,0-2.83A16.19,16.19,0,0,1,53,8.11a18.23,18.23,0,0,1,2.78,10.56V65.73q0,11.3,0,22.58V95c0,1.27-.42,3.35,1,4,.58.27,1.08-.59.5-.86Z"/><path class="cls-1" d="M122.16,101.27a5.12,5.12,0,0,1-.09,1,4.65,4.65,0,0,1-.16-2.06,2.74,2.74,0,0,1,0-.28A5,5,0,0,1,122.16,101.27Z"/><path class="cls-2" d="M147.93,104.63c-3.6,26,7.36,52.5-.27,78.13a44.84,44.84,0,0,1-10.39,18.47c-.56.58.32,1.47.88.88,8.92-9.25,12.63-22.15,13.34-34.72.74-13.27-1.58-26.45-2.62-39.65a105.14,105.14,0,0,1,.27-22.78c.11-.79-1.1-1.13-1.21-.33Z"/><path class="cls-2" d="M18.28,139.23,23,169c.1.64,1.06.37,1-.26L19.25,139c-.1-.63-1.07-.36-1,.27Z"/><path class="cls-2" d="M19.76,146.16c-.63-3.22-4.43-3-6.87-2.22a12,12,0,0,0-7.71,7.29,52.6,52.6,0,0,0-2,6.73c-.72,2.77-1.42,5.55-2,8.36a49,49,0,0,0-.91,15.55A27.75,27.75,0,0,0,5.19,195a36.58,36.58,0,0,0,10.65,9.15,113.86,113.86,0,0,0,28.33,12.27,117.89,117.89,0,0,0,34.74,4.45.5.5,0,0,0,0-1,117,117,0,0,1-55.77-12.79C15,202.86,6.4,197.8,3,188.79c-3.53-9.29-1.68-19.39.68-28.72,1.16-4.55,2-10.57,6.11-13.52,1.94-1.39,8.26-4.07,9-.13.13.63,1.09.37,1-.26Z"/><path class="cls-2" d="M148.35,109.36a19.52,19.52,0,0,0-16.23-15.43c-.63-.09-.9.87-.27,1a18.57,18.57,0,0,1,15.53,14.73c.13.63,1.09.37,1-.26Z"/><path class="cls-2" d="M26.25,18.29a7.78,7.78,0,0,0,3.84,7.31c3,1.91,6.73,2,10.13,1.75,2.91-.18,6.72-.38,8.94-2.54a13.43,13.43,0,0,0,3.51-7.23c.13-.79-1.07-1.13-1.2-.33a13.19,13.19,0,0,1-2.77,6.23c-1.87,2.18-5.38,2.4-8.05,2.59-3,.21-6.33.31-9.12-1.09-2.51-1.25-4.4-3.81-4-6.69.11-.8-1.15-.79-1.25,0Z"/><path class="cls-2" d="M56.61,100.8a.5.5,0,0,0,0-1,.5.5,0,0,0,0,1Z"/><path class="cls-2" d="M135.88,94.89c-5.22-2-11.81-.75-14.52,4.56-.29.57.57,1.08.87.51a9.15,9.15,0,0,1,5.28-4.5,12,12,0,0,1,8.11.39c.6.24.86-.73.26-1Z"/><path class="cls-2" d="M122.21,98.86c-3.22-4.93-9.22-6.47-14.79-6.75-5.89-.3-12,1.1-16.22,5.43-.45.46.25,1.17.7.71,3.94-4,9.57-5.36,15-5.16s11.3,1.52,14.41,6.28c.35.53,1.21,0,.86-.51Z"/><path class="cls-2" d="M92.29,97.38c-4.34-5.86-11.83-7.3-18.73-7S59.81,93,56.44,99.53c-.29.57.57,1.07.87.5,3.2-6.2,9.65-8.37,16.25-8.65s13.75,1,17.87,6.5c.38.52,1.25,0,.86-.5Z"/><path class="cls-3" d="M92.38,104.65l0-.06.25.59a3.37,3.37,0,0,1-.1-.34l.09.67a2.09,2.09,0,0,1,0-.5l-.09.67a2.43,2.43,0,0,1,.14-.48l-.25.59a2.71,2.71,0,0,1,.21-.37l-.39.51a2.91,2.91,0,0,1,.3-.31L92,106a2.71,2.71,0,0,1,.37-.21l-.6.25a6.17,6.17,0,0,1,.74-.19,4,4,0,0,0,1.66-.88,3.16,3.16,0,0,0,.62-3.83,2.51,2.51,0,0,0-1.5-1.15l-.66-.09a2.43,2.43,0,0,0-1.26.34l-.38.16.6-.25a5.55,5.55,0,0,1-1.26.38l.67-.09a2.81,2.81,0,0,1-.71,0l.66.09a3,3,0,0,1-.51-.15l.59.25a3.07,3.07,0,0,1-.39-.23l.51.39a1.66,1.66,0,0,1-.27-.26l.4.5a1.29,1.29,0,0,1-.19-.32l.25.6a2.46,2.46,0,0,1-.07-.29l.09.67a1.5,1.5,0,0,1,0-.3l-.09.67a1.48,1.48,0,0,1,.1-.36l-.25.6a1.65,1.65,0,0,1,.18-.32l-.39.5c.07-.07.13-.14.21-.21l-.51.39a2,2,0,0,1,.32-.18l-.6.25.07,0a2.65,2.65,0,0,0,1.5-1.15,2.51,2.51,0,0,0-.9-3.42,2.5,2.5,0,0,0-1.93-.25,3.81,3.81,0,0,0-2.59,2.7,3.76,3.76,0,0,0,1,3.67,4.54,4.54,0,0,0,3.12,1.21,8.41,8.41,0,0,0,3.24-.91l-3.42-.9,0,.06-.25-.59a.5.5,0,0,1,0,.13l-.09-.66a.57.57,0,0,1,0,.13l.09-.66a.74.74,0,0,1,0,.14l.25-.6a.76.76,0,0,1-.12.19l.4-.5-.17.16.51-.4a.94.94,0,0,1-.22.12l.6-.25a4.37,4.37,0,0,1-.62.17,4.33,4.33,0,0,0-1.09.4A4.11,4.11,0,0,0,88.22,103a4.4,4.4,0,0,0-.63,2.06,4.22,4.22,0,0,0,.47,2.12,2.43,2.43,0,0,0,1.49,1.15,2.5,2.5,0,0,0,3.08-1.74l.09-.67a2.53,2.53,0,0,0-.34-1.26Z"/><path class="cls-3" d="M95.77,98.46l-.13-.11a2.55,2.55,0,0,0-1.11-.65,1.85,1.85,0,0,0-1,0,1.71,1.71,0,0,0-.93.3,2.48,2.48,0,0,0-.9.89h0l.39-.5-.07.07.51-.4a.21.21,0,0,1-.1.06l.6-.25-.11,0,.67-.09h-.1l.66.09h0l.6,4.57.46-.34a1.91,1.91,0,0,0,.71-.64,1.88,1.88,0,0,0,.44-.85,1.9,1.9,0,0,0,.05-1,2,2,0,0,0-.3-.93l-.39-.51a2.5,2.5,0,0,0-1.1-.64l-.67-.09a2.53,2.53,0,0,0-1.26.34l-.46.34-.51.39-.39.51L91,99.6a1.9,1.9,0,0,0-.05,1,1.24,1.24,0,0,0,.17.63,1.27,1.27,0,0,0,.32.55,1.21,1.21,0,0,0,.45.45,1.94,1.94,0,0,0,.85.45h0l.67.09h.1l.66-.09h0l.07,0,.31-.13.31-.13h0l0,0,.51-.39h0l0,0,0,0c.07-.08.15-.19.2-.26l.21-.26-3.93.5.13.12a2,2,0,0,0,.81.52,1.83,1.83,0,0,0,1,.21,1.88,1.88,0,0,0,1-.21,2,2,0,0,0,.81-.52l.39-.51a2.53,2.53,0,0,0,.34-1.26l-.09-.66a2.53,2.53,0,0,0-.64-1.11Z"/><path class="cls-3" d="M94,102.34c3.22,0,3.22-5,0-5s-3.22,5,0,5Z"/><path class="cls-3" d="M94,102.23c3.22,0,3.22-5,0-5s-3.22,5,0,5Z"/><path class="cls-3" d="M94,102.23c3.22,0,3.22-5,0-5s-3.22,5,0,5Z"/><path class="cls-3" d="M94.07,102.17c3.22,0,3.23-5,0-5s-3.22,5,0,5Z"/><path class="cls-3" d="M89,101.59c3.22,0,3.22-5,0-5s-3.22,5,0,5Z"/><path class="cls-3" d="M89.08,101.65c3.22,0,3.23-5,0-5s-3.22,5,0,5Z"/><path class="cls-3" d="M89.19,101.67c3.21,0,3.22-5,0-5s-3.23,5,0,5Z"/><path class="cls-3" d="M89.21,101.67c3.22,0,3.22-5,0-5s-3.22,5,0,5Z"/><path class="cls-3" d="M89.21,101.69c3.22,0,3.22-5,0-5s-3.22,5,0,5Z"/><path class="cls-3" d="M89.23,101.69c3.22,0,3.22-5,0-5s-3.22,5,0,5Z"/><path class="cls-3" d="M89.25,101.69c3.22,0,3.22-5,0-5s-3.22,5,0,5Z"/><path class="cls-3" d="M89.62,102.25c3.22,0,3.23-5,0-5s-3.22,5,0,5Z"/><path class="cls-3" d="M89.48,102c3.22,0,3.22-5,0-5s-3.22,5,0,5Z"/><path class="cls-3" d="M124.05,105a8.56,8.56,0,0,0-.17-1.13,7.75,7.75,0,0,0-.41-1,5.34,5.34,0,0,0-.89-1.33,2.7,2.7,0,0,0-1.76-.73,1.8,1.8,0,0,0-1,.21,1.77,1.77,0,0,0-.8.52l-.39.5a2.44,2.44,0,0,0-.34,1.27l.09.66a2.41,2.41,0,0,0,.64,1.1l0,.07-.39-.5a3.14,3.14,0,0,1,.44.75l-.25-.59a3.51,3.51,0,0,1,.24.84l-.09-.66V105a1.88,1.88,0,0,0,.22,1,2.3,2.3,0,0,0,1.32,1.32,1.88,1.88,0,0,0,1,.22l.67-.09a2.52,2.52,0,0,0,1.1-.65l.39-.5a2.43,2.43,0,0,0,.34-1.26Z"/><path class="cls-3" d="M119.31,103.64c3.22,0,3.22-5,0-5s-3.22,5,0,5Z"/><path class="cls-3" d="M119.32,103.52c3.22,0,3.22-5,0-5s-3.22,5,0,5Z"/><path class="cls-3" d="M119.39,103.51c3.22,0,3.23-5,0-5s-3.22,5,0,5Z"/><path class="cls-3" d="M119.44,103.49c3.22,0,3.22-5,0-5s-3.22,5,0,5Z"/><path class="cls-3" d="M122.06,105.36c3.22,0,3.23-5,0-5s-3.22,5,0,5Z"/><path class="cls-3" d="M124.6,103.36c3.22,0,3.23-5,0-5s-3.22,5,0,5Z"/><path class="cls-3" d="M124.59,103.39c3.22,0,3.22-5,0-5s-3.22,5,0,5Z"/><path class="cls-3" d="M124.54,103.4c3.22,0,3.23-5,0-5s-3.22,5,0,5Z"/><path class="cls-3" d="M124.46,103.59c3.22,0,3.22-5,0-5s-3.22,5,0,5Z"/><path class="cls-3" d="M121.85,98.11a.25.25,0,0,0,0-.5.25.25,0,0,0,0,.5Z"/><path class="cls-3" d="M121.89,98.18a.25.25,0,0,0,0-.5.25.25,0,0,0,0,.5Z"/><path class="cls-3" d="M121.85,98.11v.06l0,0-.06,0a0,0,0,0,0,0,0,.11.11,0,0,0,0,.13.09.09,0,0,0,.13,0s0,0,0,0a.08.08,0,0,0-.08,0,.07.07,0,0,0,0,.06s0,0,0,0h.1s0,0,0,0l0,0a0,0,0,0,0,0,0v.06l0,0h-.13s0,0,0,0H122a0,0,0,0,0,0,0v-.06l0,0,0,0,0,0h-.1l0,0h0s0,0,0,0h0v0l0,0h0v0h0l0,0a0,0,0,0,0,0,0v-.06s-.05,0-.05,0Z"/><path class="cls-3" d="M122,98.18v.06s0,0,0,0v-.06a0,0,0,0,0,0,0Z"/><path class="cls-3" d="M121.85,98.22s0,0,0,0a0,0,0,0,0,0,0Z"/><path class="cls-3" d="M122,98.22v.08s0,0,0,0h0s0,0,0-.06,0,0-.06,0a.14.14,0,0,1-.11,0s0,0,0,.05a.16.16,0,0,0,.1,0H122l0,0v-.08a0,0,0,0,0,0,0s0,0,0,0Z"/><path class="cls-3" d="M121.83,98.3a0,0,0,0,0,0,0,0,0,0,0,0,0,0Z"/><path class="cls-3" d="M121.86,98.31a.38.38,0,0,1,.15,0v0l-.09,0h0l0,0s0,0,0,0a.09.09,0,0,0,.08,0H122s0,0,0,0a.25.25,0,0,0-.17,0s0,0,0,0l0,0Z"/><path class="cls-3" d="M121.84,98.31a0,0,0,0,0,0,0,0,0,0,0,0,0,0Z"/><path class="cls-3" d="M122,98.33a0,0,0,0,0,0,0s0,0,0,0Z"/><path class="cls-3" d="M122,98.33a0,0,0,0,0,0,0s0,0,0,0Z"/><path class="cls-3" d="M122,98.33a0,0,0,0,0,0,0,0,0,0,0,0,0,0Z"/><path class="cls-3" d="M122,98.28h0a0,0,0,0,0,0,0h0s0,0,0,0Z"/><path class="cls-3" d="M131.76,93.94h.6a0,0,0,0,0,0,0h-.6a0,0,0,0,0,0,0Z"/><path class="cls-3" d="M131.78,94h.59a0,0,0,0,0,0,0h-.59s0,0,0,0Z"/><path class="cls-3" d="M132.3,94h.25a0,0,0,0,0,0,0h-.25a0,0,0,0,0,0,0Z"/><path class="cls-3" d="M132.29,93.93l-.22,0s0,0,0,0,0,0,0,0l.22,0a0,0,0,0,0,0,0s0,0,0,0Z"/><path class="cls-3" d="M132.56,93.94h-.2a0,0,0,0,0,0,0s0,0,0,0h.2s0,0,0,0a0,0,0,0,0,0,0Z"/><path class="cls-3" d="M148.08,104.23l.92,2.33a.5.5,0,1,0,1-.27,4.28,4.28,0,0,0-1.54-2.61.52.52,0,0,0-.6-.07.49.49,0,0,0-.23.56l1.15,3.42.92-.38-1.06-2.4a.5.5,0,0,0-.86.51l1.05,2.39a.5.5,0,0,0,.92-.38l-1.16-3.42-.83.48a3.32,3.32,0,0,1,1.27,2.17l1-.27L149,104a.5.5,0,0,0-1,.27Z"/><path class="cls-3" d="M147.35,105.56l1.36,4a.5.5,0,0,0,1-.26l-1.36-4a.52.52,0,0,0-.62-.35.51.51,0,0,0-.34.62Z"/><path class="cls-3" d="M147.66,106.63l.31.88a.54.54,0,0,0,.23.3.49.49,0,0,0,.39,0,.5.5,0,0,0,.3-.23.51.51,0,0,0,.05-.38l-.32-.89a.52.52,0,0,0-.23-.3.5.5,0,0,0-.38,0,.53.53,0,0,0-.3.23.49.49,0,0,0-.05.39Z"/><path class="cls-3" d="M149.14,109.93a.5.5,0,0,0,0-1,.5.5,0,0,0,0,1Z"/><path class="cls-3" d="M149.57,109.75l.09-.55a.41.41,0,0,0,0-.19.6.6,0,0,0-.06-.19.35.35,0,0,0-.13-.14.4.4,0,0,0-.17-.09l-.13,0a.46.46,0,0,0-.26.07l-.1.08a.54.54,0,0,0-.13.22l-.09.54a.34.34,0,0,0,0,.2.41.41,0,0,0,.05.19.58.58,0,0,0,.13.14.56.56,0,0,0,.17.09l.14,0a.55.55,0,0,0,.25-.07l.1-.08a.61.61,0,0,0,.13-.22Z"/><path class="cls-3" d="M149.53,109.31v-.46a.41.41,0,0,0,0-.19.46.46,0,0,0-.11-.16.34.34,0,0,0-.16-.1.32.32,0,0,0-.19-.05l-.13,0a.53.53,0,0,0-.23.13l-.07.1a.45.45,0,0,0-.07.25v.46a.41.41,0,0,0,0,.19.57.57,0,0,0,.11.16.34.34,0,0,0,.16.1.41.41,0,0,0,.19,0l.13,0a.65.65,0,0,0,.23-.13l.07-.1a.45.45,0,0,0,.07-.25Z"/><path class="cls-3" d="M149.11,110.31a.5.5,0,0,0,0-1,.5.5,0,0,0,0,1Z"/><path class="cls-3" d="M148.13,107.12a.5.5,0,0,0,0-1,.5.5,0,0,0,0,1Z"/></g></g></svg>